<?xml version="1.0" encoding="UTF-8" standalone="no"?>
<svg version="1.1" xmlns="http://www.w3.org/2000/svg" xmlns:xlink="http://www.w3.org/1999/xlink" viewBox="0 0 271.2 186.88" preserveAspectRatio="xMidYMid meet">
	<g id="dp_dp001" transform="matrix(1,0,0,1,-94.1387,-73.7133)">
		<path id="dp_path002" fill="currentColor" fill-rule="evenodd" stroke="none" stroke-width="0" d="M 329.747,88.3293 C 329.275,88.3293 329.631,88.3093 329.156,88.3267 C 329.017,88.3307 328.768,88.4147 328.765,88.48 C 328.763,88.5467 329.147,88.7027 329.279,88.7147 C 330.321,88.8133 330.092,88.7813 331.135,88.876 C 331.24,88.8827 331.724,88.9187 331.731,88.9893 C 331.74,89.0613 331.26,89.1013 331.156,89.0947 C 330.168,89.0413 329.404,89.1227 328.457,88.8907 C 326.087,88.3067 323.763,88.44 321.425,88.9987 C 319.067,89.5613 316.693,90.0613 314.348,90.6747 C 312.723,91.0987 311.108,91.5987 309.537,92.192 C 308.384,92.6267 307.323,93.288 306.2,93.8053 C 304.492,94.592 302.767,95.344 301.047,96.108 C 299.684,96.7133 298.547,97.6227 297.425,98.584 C 296.475,99.4027 295.403,100.083 294.405,100.852 C 294.231,100.984 294.077,101.244 294.059,101.459 C 293.921,102.9 293.817,104.344 293.725,105.791 C 293.716,105.923 294.524,106.761 294.079,107.248 C 293.828,107.524 293.573,107.896 293.544,108.243 C 293.483,108.947 293.571,109.664 293.601,110.375 C 293.68,112.083 293.845,113.76 293.389,115.483 C 293.069,116.693 292.972,118.517 293.16,119.308 C 293.351,120.096 293.564,120.896 293.655,121.62 C 293.771,122.544 293.816,123.48 293.844,124.412 C 293.881,125.555 293.868,126.699 293.876,127.844 C 293.877,128.683 293.932,129.528 293.86,130.359 C 293.729,131.856 293.1,133.203 292.443,134.535 C 292.343,134.74 292.331,135.02 292.364,135.252 C 292.555,136.507 293.299,137.397 294.32,138.109 C 295.076,138.636 295.816,138.867 296.768,138.545 C 297.641,138.252 298.597,138.197 299.515,138.02 C 301.477,137.644 303.431,137.192 305.407,136.897 C 306.779,136.693 308.181,136.705 309.571,136.611 C 310.515,136.545 311.456,136.403 312.396,136.409 C 314.717,136.427 317.04,136.52 319.363,136.563 C 320.839,136.591 322.331,136.465 323.789,136.631 C 325.635,136.841 327.447,137.056 329.316,136.86 C 330.317,136.756 332.441,136.533 332.496,136.531 C 333.277,136.475 334.069,136.323 334.841,136.393 C 336.24,136.52 337.627,136.785 339.024,136.969 C 339.377,137.015 340.507,136.773 340.535,136.639 C 340.633,136.155 340.761,135.639 340.685,135.164 C 340.501,133.999 340.819,133.095 341.804,132.42 C 341.916,132.341 342.297,130.527 342.347,129.763 C 342.425,128.567 342.308,127.344 342.515,126.175 C 342.736,124.925 342.656,123.661 342.94,122.409 C 343.156,121.459 342.967,120.419 342.989,119.419 C 343.003,118.849 343.111,118.28 343.127,117.711 C 343.145,117.121 343.083,116.529 343.096,115.94 C 343.113,115.152 343.195,114.365 343.203,113.577 C 343.207,113.063 343.087,112.551 343.093,112.036 C 343.103,111.08 343.161,110.127 343.204,109.171 C 343.26,107.888 342.772,103.221 342.768,103.167 C 342.708,102.261 342.603,101.357 342.604,100.451 C 342.608,98.4533 342.649,96.4587 342.711,94.464 C 342.743,93.5853 342.768,92.692 342.968,91.8427 C 343.275,90.532 342.403,89.116 341.049,88.9573 C 340.537,88.8973 340.019,88.8813 339.508,88.8333 C 336.26,88.5307 333.023,88.068 329.747,88.3293M 276.765,141.204 C 276.66,140.703 276.593,140.188 276.44,139.701 C 276.013,138.364 275.872,137.048 276.453,135.711 C 276.608,135.353 276.668,134.945 276.72,134.555 C 276.847,133.569 277.007,132.583 277.04,131.592 C 277.113,129.513 277.181,127.431 277.119,125.351 C 277.079,124.049 277.264,122.815 277.597,121.568 C 277.783,120.873 277.825,120.139 277.919,119.421 C 277.953,119.147 277.925,115.796 277.416,114.677 C 277.088,113.953 276.985,113.26 276.992,112.501 C 277.001,112.011 276.908,111.519 276.857,111.029 C 276.855,110.988 276.619,108.124 276.68,107.732 C 276.699,107.617 276.685,107.499 276.705,107.384 C 276.739,107.156 276.815,106.929 276.825,106.7 C 276.869,105.784 276.924,104.869 276.921,103.953 C 276.921,103.423 276.808,102.892 276.764,102.36 C 276.679,101.328 276.647,100.288 276.519,99.26 C 276.364,97.9893 275.349,93.8213 274.92,93.0347 C 274.473,92.212 274.272,91.252 274.001,90.34 C 273.903,90.0133 274.024,89.8027 274.42,90.0187 C 274.764,90.2067 274.985,90.1413 275.119,89.74 C 275.144,89.6613 275.447,89.604 275.589,89.644 C 276.001,89.7613 276.387,89.9827 276.803,90.0733 C 277.18,90.156 277.299,88.988 277.385,88.964 C 277.645,88.8867 277.975,88.8573 278.216,88.956 C 278.741,89.172 279.2,89.56 279.736,89.7307 C 280.967,90.1213 282.209,90.5627 283.481,90.7093 C 284.164,90.7867 286.059,89.9027 286.268,89.896 C 287.129,89.876 287.999,89.9547 288.852,89.8667 C 289.633,89.784 290.407,89.5707 291.165,89.3507 C 293.611,88.64 296.041,87.876 298.489,87.1747 C 300.683,86.548 302.881,85.9347 305.097,85.384 C 308.38,84.5693 311.68,83.8133 314.976,83.032 C 316.615,82.6453 318.241,82.1893 319.897,81.8933 C 322.377,81.452 324.875,81.1 327.372,80.76 C 328.835,80.56 330.308,80.4387 331.78,80.3053 C 333.056,80.188 334.34,80.1173 335.617,80.0027 C 337.443,79.836 339.267,79.5973 341.096,79.4853 C 344.685,79.264 348.276,79.0653 351.839,79.8773 C 353.551,80.2653 355.168,80.9013 356.833,81.3867 C 359.164,82.0653 360.579,83.7253 362.096,85.3467 C 362.575,85.86 363.087,86.3587 363.476,86.9347 C 363.76,87.356 363.927,87.8813 364.035,88.3853 C 364.241,89.336 364.435,90.3027 364.508,91.2693 C 364.564,91.9853 364.523,92.744 364.331,93.4307 C 363.989,94.632 363.512,95.7987 363.069,96.972 C 362.612,98.1773 361.98,99.3373 361.683,100.577 C 361.175,102.695 360.247,104.728 360.383,106.992 C 360.436,107.959 360.197,108.94 360.133,109.917 C 360.108,110.307 360.219,110.704 360.221,111.099 C 360.224,111.341 360.068,112.94 360.153,113.481 C 360.623,116.465 360.519,119.455 360.3,122.448 C 360.132,124.72 360.472,126.96 360.637,129.216 C 360.731,130.455 360.429,131.729 360.253,132.981 C 360.079,134.235 359.787,135.471 359.643,136.728 C 359.459,138.343 359.413,139.975 359.216,141.587 C 359.157,142.061 358.081,143.564 357.993,143.911 C 357.721,144.995 356.709,145.396 356.009,146.067 C 355.767,146.301 355.251,146.235 354.887,146.372 C 354.143,146.656 353.42,146.989 352.685,147.293 C 352.445,147.393 352.188,147.464 351.941,147.556 C 351.419,147.752 350.897,147.968 350.367,148.153 C 349.305,148.527 347.233,148.807 346.271,149.647 C 345.309,150.487 343.821,150.861 342.393,150.771 C 341.215,150.696 340.035,150.629 338.857,150.541 C 336.328,150.349 333.803,150.072 331.269,149.971 C 328.989,149.883 326.697,150.049 324.416,149.981 C 322.872,149.932 321.341,149.644 319.8,149.512 C 318.121,149.365 316.439,149.261 314.757,149.157 C 313.517,149.081 312.277,148.979 311.037,148.993 C 309.845,149.008 308.653,149.163 307.459,149.247 C 306.836,149.289 306.199,149.247 305.585,149.352 C 304.917,149.469 303.232,150.125 303.031,150.221 C 302.259,150.589 301.443,150.889 300.716,151.331 C 299.785,151.893 298.912,151.548 298.011,151.344 C 297.128,151.147 296.225,151.016 295.363,150.756 C 294.569,150.52 293.809,150.171 293.051,149.84 C 291.728,149.261 290.467,148.471 289.088,148.127 C 287.897,147.827 286.585,147.355 285.307,148.153 C 284.947,148.38 284.347,148.412 283.919,148.305 C 283.008,148.076 282.108,147.759 281.259,147.364 C 280.343,146.937 279.436,146.455 278.636,145.852 C 278.205,145.529 277.932,144.935 277.717,144.411 C 277.445,143.752 277.32,143.036 277.104,142.351 C 276.985,141.973 276.731,141.216 276.765,141.204"/>
		<path id="dp_path003" fill="currentColor" fill-rule="evenodd" stroke="none" stroke-width="0" d="M 231.837,157.208 C 228.756,157.125 227.592,156.831 225.297,156.504 C 224.081,156.332 221.576,156.288 220.359,156.113 C 218.931,155.907 209.725,154.624 207.987,154.423 C 205.556,154.141 203.348,153.269 201.297,151.903 C 198.823,150.253 196.527,148.424 194.661,146.108 C 193.939,145.213 193.367,144.205 192.675,143.287 C 191.945,142.323 191.193,141.368 190.381,140.471 C 189.235,139.208 188.495,137.748 187.901,136.175 C 187.465,135.017 186.907,133.904 186.397,132.775 C 185.555,130.908 184.681,129.057 184.179,127.056 C 183.869,125.82 183.225,124.657 183.016,123.415 C 182.621,121.064 182.359,118.684 182.189,116.307 C 182.107,115.168 182.397,114.008 182.453,112.855 C 182.588,110.031 183.505,107.403 184.421,104.771 C 184.868,103.495 185.195,102.169 185.739,100.937 C 186.637,98.9093 187.631,96.92 188.653,94.948 C 190.08,92.2067 192.116,89.9267 194.42,87.888 C 196.387,86.1467 198.385,84.4307 200.459,82.8173 C 201.857,81.724 203.352,80.7147 204.915,79.868 C 207.448,78.4933 210.001,77.112 212.677,76.0533 C 214.868,75.1867 217.22,74.6333 219.552,74.2213 C 221.679,73.8493 223.869,73.8093 226.036,73.7133 C 227.44,73.648 228.851,73.6853 230.249,73.7907 C 231.729,73.9013 233.224,74.0373 234.664,74.364 C 236.649,74.812 238.596,75.4213 240.543,76.0147 C 241.749,76.3787 242.908,76.912 244.124,77.2307 C 244.963,77.4507 245.864,77.4733 246.739,77.5107 C 247.253,77.5307 248.356,78.1453 248.468,78.672 C 248.72,79.8587 248.937,81.052 249.125,82.2507 C 249.159,82.46 248.992,82.7067 248.897,82.9253 C 248.632,83.552 248.353,84.172 248.08,84.796 C 248.075,84.808 248.075,84.8267 248.064,84.832 C 247.201,85.6 247.239,86.6107 247.165,87.648 C 247.068,89.008 245.753,89.572 244.511,89 C 243.008,88.308 241.393,88.052 239.735,87.984 C 237.707,87.9 235.685,87.684 233.661,87.5973 C 231.564,87.508 229.46,87.4347 227.36,87.4813 C 225.633,87.52 223.899,87.672 222.184,87.9107 C 221.199,88.0467 220.213,88.372 219.293,88.7627 C 217.511,89.52 215.749,90.3293 214.031,91.2173 C 212.756,91.8747 211.531,92.6427 210.347,93.448 C 209.127,94.2787 207.923,95.1507 206.819,96.1253 C 205.828,97 204.961,98.0147 204.089,99.008 C 203.417,99.7693 202.781,100.568 202.207,101.403 C 201.491,102.44 200.811,103.507 200.199,104.609 C 199.632,105.627 199.099,106.679 198.689,107.767 C 198.189,109.096 197.883,110.496 197.401,111.836 C 196.801,113.503 196.624,115.236 196.491,116.971 C 196.369,118.541 196.327,120.115 196.633,121.689 C 196.852,122.821 196.773,124.012 197.011,125.14 C 197.275,126.4 197.811,127.604 198.109,128.859 C 198.755,131.592 200.608,133.533 202.447,135.468 C 204.336,137.453 206.7,138.761 209.255,139.733 C 211.179,140.467 213.083,141.269 215.043,141.881 C 217.483,142.644 219.98,143.228 222.444,143.92 C 224.005,144.359 225.524,144.98 227.105,145.292 C 230.163,145.892 233.26,146.067 236.371,145.704 C 237.555,145.567 238.773,145.561 239.919,145.276 C 241.435,144.895 242.895,144.293 244.379,143.791 C 246.257,143.156 247.665,141.88 249.011,140.5 C 250.508,138.961 252.025,137.437 253.548,135.92 C 255.683,133.796 257.052,131.201 258.215,128.485 C 259.212,126.152 260.207,123.819 261.116,121.452 C 261.461,120.551 261.588,119.559 261.764,118.6 C 262.013,117.219 262.329,115.836 262.421,114.441 C 262.605,111.635 262.101,108.928 260.523,106.544 C 259.429,104.892 257.965,103.595 256.129,102.732 C 255.173,102.285 254.276,101.724 253.337,101.243 C 252.524,100.828 251.688,100.456 250.864,100.059 C 249.963,99.6227 249.084,99.1307 248.159,98.7587 C 247.116,98.3373 246.029,98.0187 244.963,97.6667 C 244.257,97.432 243.544,97.212 242.837,96.988 C 241.697,96.628 240.536,96.3293 239.429,95.896 C 238.308,95.4573 237.24,94.888 236.149,94.376 C 236.116,94.3613 236.085,94.3373 236.051,94.3173 C 236.099,94.3027 236.147,94.268 236.189,94.276 C 236.591,94.3547 236.988,94.464 237.393,94.5213 C 238.996,94.7493 240.599,95.012 242.211,95.1613 C 243.127,95.248 245.451,95.1933 245.684,95.2 C 245.796,95.2013 245.909,95.1387 246.023,95.1067 C 245.947,95.0347 245.884,94.9333 245.793,94.9 C 245.113,94.6573 243.549,94.1133 243.447,94.072 C 243.564,94.064 244.396,94.1907 244.699,94.2133 C 245.341,94.2587 245.985,94.2893 246.632,94.288 C 246.777,94.2867 246.923,94.1293 247.069,94.0427 C 246.969,93.9093 246.891,93.6987 246.757,93.6573 C 246.269,93.504 245.76,93.408 245.259,93.2907 C 245.208,93.2787 245.157,93.2587 245.104,93.244 C 245.156,93.224 245.396,93.0973 245.467,93.052 C 245.393,93.02 244.903,93.1027 244.731,93.1667 C 244.684,93.1853 244.621,93.168 244.568,93.164 C 244.028,93.116 243.487,93.068 242.947,93.016 C 242.887,93.0093 242.829,92.988 242.769,92.9707 C 242.831,92.9507 242.891,92.92 242.952,92.9107 C 243.336,92.8507 243.729,92.8333 244.099,92.7293 C 244.431,92.6373 244.892,92.7227 244.969,92.16 C 244.987,92.0293 245.371,91.8227 245.548,91.856 C 246.32,91.992 246.847,91.488 247.475,91.24 C 247.904,91.0693 248.356,90.8587 248.803,90.8427 C 249.955,90.8027 251.127,90.7467 252.257,90.9093 C 253.541,91.092 254.799,91.472 256.052,91.8267 C 257.027,92.1013 257.975,92.4693 258.937,92.7867 C 259.041,92.8227 259.171,92.788 259.288,92.7867 C 259.208,92.7107 259.133,92.6293 259.047,92.5627 C 258.947,92.4827 258.837,92.4147 258.731,92.3413 C 258.897,92.3067 259.092,92.1987 259.221,92.252 C 259.695,92.448 260.165,92.6627 260.596,92.932 C 261.452,93.4667 262.285,94.0347 263.113,94.6093 C 263.232,94.692 263.375,94.948 263.333,95.012 C 263.045,95.452 263.456,95.568 263.657,95.772 C 264.317,96.44 265.029,97.0627 265.635,97.7787 C 265.967,98.1733 266.069,98.756 266.368,99.1893 C 266.76,99.76 267.151,100.407 267.708,100.783 C 269.248,101.823 270.115,103.2 270.363,105.016 C 270.432,105.525 270.644,106.023 270.844,106.505 C 271.143,107.231 271.225,107.96 271.209,108.749 C 271.191,109.66 271.404,110.571 271.451,111.484 C 271.531,113.097 271.553,114.715 271.619,116.331 C 271.711,118.565 271.541,120.792 271.065,122.96 C 270.692,124.657 269.968,126.276 269.431,127.939 C 269.157,128.784 268.915,129.643 268.716,130.508 C 268.385,131.929 267.997,133.349 267.833,134.792 C 267.623,136.64 266.587,138.088 265.743,139.629 C 264.348,142.177 262.936,144.72 261.405,147.188 C 260.415,148.785 259.099,150.148 257.661,151.392 C 256.101,152.744 254.249,153.516 252.327,154.117 C 251.06,154.512 249.737,154.735 248.431,154.997 C 246.632,155.359 244.832,155.755 243.019,156.012 C 240.772,156.329 239.736,156.72 237.481,156.961 C 236.181,157.1 234.919,157.293 231.837,157.208"/>
		<path id="dp_path004" fill="currentColor" fill-rule="evenodd" stroke="none" stroke-width="0" d="M 262.492,117.348 C 262.683,117.448 263.265,117.695 263.455,117.793 C 263.403,117.821 263.195,117.895 263.161,117.88 C 262.971,117.792 262.531,117.529 262.344,117.429 C 262.384,117.409 262.424,117.385 262.492,117.348"/>
		<path id="dp_path005" fill="currentColor" fill-rule="evenodd" stroke="none" stroke-width="0" d="M 162.176,138.336 C 163.159,138.069 163.763,136.765 163.231,135.812 C 162.895,135.211 161.897,133.265 161.855,132.833 C 161.789,132.176 160.067,129.853 159.932,129.209 C 159.837,128.759 158.288,127.328 158.177,127.104 C 157.999,126.751 157.763,126.425 157.543,126.091 C 157.455,125.953 157.376,125.801 157.259,125.691 C 156.892,125.352 154.593,121.512 154.237,120.871 C 153.931,120.324 153.679,119.727 153.273,119.261 C 152.959,118.899 152.557,117.847 152.485,117.731 C 151.951,116.881 151.425,116.027 150.868,115.193 C 150.713,114.964 150.436,114.817 150.249,114.604 C 150.017,114.341 149.483,112.857 149.124,112.503 C 148.831,112.213 147.704,110.012 147.324,109.867 C 147.04,109.76 146.513,108.533 146.301,108.171 C 145.961,107.591 145.752,106.937 145.429,106.348 C 145.139,105.821 143.039,103.277 142.929,102.984 C 142.824,102.701 142.633,102.451 142.48,102.185 C 142.388,102.023 142.295,101.859 142.205,101.693 C 141.913,101.148 141.468,100.629 141.369,100.051 C 141.205,99.0973 140.731,98.344 140.211,97.5893 C 140.149,97.5013 139.821,97.4587 139.777,97.5173 C 139.329,98.1067 138.843,98.684 138.509,99.336 C 138.083,100.171 137.831,101.091 137.425,101.937 C 137.043,102.736 136.531,103.476 136.125,104.267 C 135.843,104.817 134.615,107.184 134.336,107.62 C 134.016,108.12 133.752,108.665 133.401,109.144 C 132.835,109.923 132.156,110.625 131.637,111.433 C 131.177,112.147 130.895,112.975 130.487,113.728 C 129.587,115.404 128.603,117.039 127.752,118.736 C 126.867,120.511 126.108,122.348 125.269,124.148 C 124.744,125.272 124.24,126.415 123.611,127.483 C 122.705,129.019 121.621,130.453 120.749,132.007 C 119.753,133.771 118.929,135.628 117.993,137.425 C 117.199,138.955 114.939,142.004 114.864,142.167 C 115.057,142.16 115.259,142.187 115.443,142.143 C 116.504,141.885 117.559,141.592 118.624,141.352 C 119.084,141.248 119.564,141.22 120.036,141.197 C 121.005,141.151 121.979,141.08 122.948,141.113 C 124.207,141.159 125.463,141.291 126.723,141.393 C 128.048,141.501 129.387,141.539 130.693,141.759 C 131.769,141.94 132.796,141.991 133.881,141.817 C 135.901,141.496 137.941,141.287 139.972,141.047 C 140.831,140.945 141.705,140.943 142.552,140.785 C 144.865,140.359 147.156,139.792 149.48,139.436 C 151.641,139.105 153.831,138.977 156.008,138.757 C 157.74,138.583 161.871,138.264 162.176,138.336M 142.204,89.584 C 142.116,90.9507 142.076,91.9693 141.98,92.9853 C 141.899,93.8053 142.247,94.4067 142.915,94.7907 C 143.899,95.356 144.897,95.8173 146.108,95.8853 C 147.217,95.948 148.361,96.2173 149.388,96.6373 C 151.452,97.4827 153.444,98.4987 155.477,99.42 C 155.723,99.532 156.037,99.4973 156.32,99.5347 C 156.387,99.5427 156.451,99.5693 156.515,99.5893 C 156.488,99.6387 156.475,99.7107 156.431,99.7387 C 156.027,100.001 156.295,100.141 156.521,100.311 C 157.088,100.733 157.669,101.133 157.653,101.975 C 157.648,102.2 157.844,102.46 158.007,102.659 C 158.488,103.245 158.468,104.151 159.244,104.553 C 159.323,104.593 159.305,104.785 159.367,104.887 C 159.509,105.14 159.692,105.368 159.825,105.624 C 159.999,105.953 160.125,106.305 160.3,106.633 C 160.455,106.921 160.655,107.185 160.819,107.468 C 161.049,107.867 161.271,108.275 161.495,108.679 C 161.575,108.824 161.633,108.987 161.736,109.112 C 162.157,109.615 162.593,110.107 163.021,110.603 C 163.084,110.675 163.185,110.767 163.176,110.837 C 163.04,111.841 163.817,112.444 164.252,113.18 C 164.928,114.319 165.699,115.404 166.44,116.503 C 166.672,116.847 166.943,117.161 167.201,117.487 C 167.907,118.371 168.612,119.257 169.327,120.132 C 169.499,120.343 170.536,121.953 171.107,122.597 C 171.849,123.433 172.605,124.263 173.305,125.136 C 173.689,125.615 175.009,127.673 175.08,128.364 C 175.128,128.835 175.571,129.267 175.845,129.709 C 175.908,129.812 176.036,129.879 176.087,129.985 C 176.517,130.884 176.948,131.781 177.357,132.691 C 177.724,133.507 178.123,134.313 178.393,135.16 C 178.729,136.199 179.252,137.083 180.003,137.875 C 180.917,138.841 181.76,139.873 182.644,140.867 C 183.316,141.62 183.999,142.368 184.699,143.096 C 185.125,143.54 185.228,144.013 185.097,144.613 C 184.936,145.363 184.907,146.137 184.749,146.889 C 184.677,147.241 184.536,147.693 184.272,147.876 C 183.487,148.412 182.633,148.856 181.787,149.301 C 180.708,149.872 179.617,150.428 178.511,150.949 C 178.227,151.084 177.849,151.137 177.54,151.085 C 176.768,150.955 176.012,150.723 175.241,150.571 C 175.027,150.529 174.753,150.561 174.561,150.663 C 173.651,151.135 172.733,150.925 171.82,150.731 C 170.723,150.495 169.643,150.089 168.535,149.996 C 166.571,149.825 164.589,149.763 162.616,149.787 C 160.365,149.816 158.115,149.985 155.865,150.103 C 153.736,150.215 151.609,150.343 149.48,150.459 C 147.245,150.583 145.031,150.945 142.765,150.808 C 141.488,150.731 140.161,150.985 138.896,151.263 C 136.904,151.696 134.928,151.904 132.881,151.74 C 131.345,151.616 129.788,151.795 128.241,151.776 C 127.228,151.764 126.213,151.588 125.203,151.585 C 123.493,151.58 121.772,151.548 120.081,151.741 C 119.301,151.829 118.516,152.335 117.853,152.813 C 116.831,153.548 115.832,153.705 114.68,153.203 C 113.445,152.663 112.176,152.203 110.944,151.663 C 110.417,151.431 109.953,151.056 109.436,150.796 C 108.843,150.499 108.22,150.043 107.612,150.048 C 107.029,150.053 106.333,150.44 105.897,150.869 C 104.663,152.083 103.884,152.252 102.341,151.399 C 102.112,151.269 101.869,151.16 101.62,151.071 C 100.935,150.827 100.335,150.495 99.8427,149.92 C 99.26,149.235 96.556,146.071 96.4667,145.905 C 96.144,145.319 95.7573,144.761 95.492,144.151 C 95.3893,143.92 95.452,143.499 95.6107,143.3 C 96.0147,142.799 96.5187,142.377 96.9827,141.923 C 97.0107,141.892 98.204,140.56 98.6267,139.811 C 99.0627,139.043 99.5093,138.28 99.9813,137.535 C 100.595,136.564 101.243,135.613 101.865,134.649 C 102.467,133.725 103.047,132.788 103.655,131.867 C 103.936,131.44 104.287,131.06 104.56,130.627 C 104.971,129.967 105.341,129.283 105.729,128.608 C 105.955,128.213 106.175,127.819 106.4,127.427 C 106.445,127.341 107.388,125.637 107.825,124.876 C 107.867,124.805 108.385,123.897 108.579,123.501 C 108.717,123.219 108.885,122.948 109.044,122.675 C 109.211,122.384 109.384,122.091 109.557,121.803 C 109.591,121.744 110.241,120.196 110.699,119.552 C 110.965,119.175 111.175,118.756 111.415,118.357 C 111.492,118.227 112.744,115.965 113.229,114.932 C 113.508,114.344 113.88,113.797 114.16,113.209 C 114.28,112.959 115.372,110.171 115.561,109.819 C 115.835,109.307 116.092,108.785 116.331,108.259 C 116.396,108.117 117.499,105.753 117.627,105.184 C 117.763,104.584 117.857,103.976 117.979,103.373 C 117.992,103.299 118.963,101.98 119.027,101.175 C 119.055,100.816 119.969,99.692 120.091,99.452 C 120.155,99.3253 120.287,98.4373 120.381,98.1573 C 120.452,97.944 121.644,94.4253 121.76,94.2107 C 121.931,93.896 124.504,90.58 124.597,90.3693 C 124.869,89.7627 125.164,89.1613 125.363,88.5307 C 125.492,88.1253 125.429,87.6613 125.524,87.24 C 125.665,86.6013 125.917,85.9813 126.027,85.3387 C 126.087,84.9947 125.947,84.6187 125.896,84.2547 C 125.816,83.6827 125.711,83.112 125.663,82.5373 C 125.599,81.7427 125.584,80.944 125.536,80.1467 C 125.447,78.712 126.471,77.5413 127.905,77.448 C 127.984,77.444 128.119,77.4347 128.135,77.468 C 128.791,77.6333 131.531,78.1813 132.052,79.1867 C 132.504,80.06 133.193,80.344 133.997,80.6987 C 134.693,81.0067 135.261,81.5933 135.884,82.0573 C 135.905,82.0747 135.92,82.1027 135.941,82.12 C 136.62,82.6653 137.303,83.208 137.973,83.764 C 138.165,83.92 138.4,84.0813 138.488,84.2933 C 138.815,85.0907 139.407,85.652 140.029,86.2107 C 140.501,86.6347 141.025,87.0573 141.341,87.5853 C 141.76,88.2893 142.001,89.0987 142.204,89.584"/>
	</g>
	<g id="dp_dp006" transform="matrix(1,0,0,1,0.000989624,164.262)">
		<path id="dp_path007" fill="currentColor" fill-rule="evenodd" stroke="none" stroke-width="0" d="M 23.528,-13.396 L 15.9213,-13.396 C 15.5253,-13.3893 15.2013,-13.2653 14.9507,-13.0267 C 14.7,-12.788 14.5427,-12.4707 14.484,-12.0747 L 14.0587,-9.04667 L 17.0013,-9.04667 L 17.0013,-5.856 C 16.6587,-5.68667 16.272,-5.55067 15.8427,-5.44667 C 15.4133,-5.344 14.932,-5.29333 14.4053,-5.28933 C 12.5427,-5.31467 11.0733,-5.98267 9.996,-7.28933 C 8.92,-8.596 8.36933,-10.392 8.34533,-12.676 C 8.37467,-15.0347 8.94667,-16.8893 10.0693,-18.2347 C 11.188,-19.584 12.6907,-20.2707 14.572,-20.2973 C 15.7573,-20.264 16.7493,-20.028 17.5427,-19.5933 C 18.3373,-19.1573 18.9333,-18.7253 19.3333,-18.2893 C 19.732,-17.8533 19.932,-17.6187 19.932,-17.5853 C 19.9653,-17.588 20.1947,-17.7427 20.6187,-18.044 C 21.0453,-18.3467 21.4707,-18.7853 21.8973,-19.3573 C 22.324,-19.9293 22.5547,-20.6187 22.588,-21.4293 C 22.5693,-22.3667 22.2,-23.1587 21.4893,-23.8027 C 20.776,-24.448 19.8293,-24.9347 18.652,-25.2667 C 17.4733,-25.6 16.1787,-25.7667 14.7653,-25.7667 C 12.0107,-25.748 9.59333,-25.1493 7.52267,-23.972 C 5.45067,-22.796 3.83467,-21.16 2.67733,-19.064 C 1.51867,-16.9707 0.928,-14.5333 0.910667,-11.76 C 0.925333,-9.3 1.39067,-7.168 2.29867,-5.36 C 3.20933,-3.55067 4.45867,-2.148 6.052,-1.152 C 7.64267,-0.157333 9.46933,0.345333 11.536,0.36 C 12.8907,0.348 14.076,0.145333 15.096,-0.254667 C 16.112,-0.653333 16.9653,-1.18 17.6547,-1.83333 C 17.9507,-1.168 18.3587,-0.638667 18.8787,-0.245333 C 19.4027,0.148 20.0467,0.350667 20.8187,0.36 C 21.5293,0.341333 22.1493,0.2 22.6787,-0.064 C 23.2107,-0.326667 23.6213,-0.593333 23.9187,-0.856 C 24.2147,-1.11867 24.3653,-1.25867 24.3693,-1.28 C 24.336,-1.3 24.1933,-1.736 23.948,-2.58 C 23.704,-3.42667 23.564,-4.552 23.528,-5.96133 Z "/>
		<path id="dp_path008" fill="currentColor" fill-rule="evenodd" stroke="none" stroke-width="0" d="M 42.3333,-24.9853 C 42.316,-25.0107 42.1613,-25.1093 41.868,-25.2853 C 41.572,-25.4613 41.2387,-25.56 40.8667,-25.5853 C 40.6587,-25.5853 40.1867,-25.5693 39.452,-25.54 C 38.72,-25.512 37.8907,-25.4813 36.9653,-25.4547 C 36.04,-25.428 35.1867,-25.412 34.404,-25.4093 C 34.4213,-25.3733 34.4307,-25.068 34.4333,-24.4933 C 34.4373,-23.9187 34.3307,-23.2893 34.1107,-22.6053 L 25.98,-0.42 C 25.9947,-0.396 26.1493,-0.296 26.4453,-0.121333 C 26.7387,0.0546667 27.072,0.154667 27.4467,0.178667 C 27.892,0.172 28.6293,0.142667 29.6547,0.0906667 C 30.684,0.0386667 31.7267,0.00933333 32.792,0.00266667 L 34.9,-6.08267 L 41.7653,-6.08267 L 43.6947,-0.42 C 43.7133,-0.396 43.868,-0.296 44.164,-0.121333 C 44.4573,0.0546667 44.7893,0.154667 45.1613,0.178667 C 45.488,0.178667 46,0.162667 46.6987,0.133333 C 47.4,0.105333 48.1867,0.076 49.0573,0.048 C 49.928,0.0213333 50.7813,0.00666667 51.616,0.00266667 Z M 37.9453,-20.1947 C 38.012,-19.904 38.1573,-19.3213 38.384,-18.444 C 38.6107,-17.5667 38.916,-16.4627 39.3027,-15.132 L 40.5733,-10.7947 L 35.7133,-10.7947 L 36.972,-15.4613 C 37.1133,-15.9973 37.2533,-16.584 37.3853,-17.228 C 37.5187,-17.8693 37.6333,-18.4653 37.7333,-19.0093 C 37.8333,-19.5573 37.9027,-19.9493 37.9453,-20.1947 Z "/>
		<path id="dp_path009" fill="currentColor" fill-rule="evenodd" stroke="none" stroke-width="0" d="M 80.9227,-24.9853 C 80.908,-25.0107 80.7507,-25.1093 80.4547,-25.2853 C 80.1613,-25.4613 79.8253,-25.56 79.4533,-25.5853 C 79.1453,-25.5853 78.6547,-25.5693 77.9773,-25.54 C 77.3027,-25.512 76.5733,-25.4813 75.796,-25.4547 C 75.02,-25.428 74.3267,-25.412 73.7133,-25.4093 C 73.7213,-25.3853 73.7187,-25.192 73.7093,-24.8253 C 73.6973,-24.46 73.628,-24.0667 73.5013,-23.6453 L 70.2107,-13.9133 C 70.032,-13.3627 69.8533,-12.6547 69.6747,-11.7867 C 69.496,-10.9187 69.3307,-10.0053 69.176,-9.04667 C 69.0667,-9.94133 68.9213,-10.8187 68.74,-11.684 C 68.5587,-12.5493 68.3267,-13.32 68.0507,-13.992 L 63.3933,-24.9853 C 63.3747,-25.0107 63.22,-25.1093 62.924,-25.2853 C 62.628,-25.4613 62.2947,-25.56 61.9227,-25.5853 C 61.7173,-25.5853 61.312,-25.5693 60.7013,-25.54 C 60.0933,-25.512 59.4,-25.4813 58.62,-25.4547 C 57.84,-25.428 57.0933,-25.412 56.3733,-25.4093 C 56.3907,-25.3907 56.436,-25.1707 56.5067,-24.7467 C 56.576,-24.32 56.5667,-23.788 56.476,-23.1493 L 52.4773,-0.42 C 52.492,-0.396 52.6493,-0.296 52.9427,-0.121333 C 53.24,0.0546667 53.5747,0.154667 53.9467,0.178667 C 54.368,0.172 55.06,0.142667 56.0253,0.0906667 C 56.9867,0.0386667 57.9693,0.00933333 58.9653,0.00266667 L 61.0213,-12.676 C 61.088,-13.0933 61.1453,-13.604 61.1907,-14.2093 C 61.236,-14.8107 61.2733,-15.4613 61.3027,-16.1573 C 61.372,-15.464 61.4547,-14.8147 61.548,-14.2067 C 61.6413,-13.5987 61.7507,-13.0813 61.8747,-12.6547 L 65.48,-0.42 C 65.4987,-0.396 65.652,-0.296 65.9493,-0.121333 C 66.2453,0.0546667 66.5773,0.154667 66.9533,0.178667 C 67.2613,0.172 67.764,0.142667 68.4587,0.0906667 C 69.152,0.0386667 69.9893,0.00933333 70.972,0.00266667 L 74.9733,-12.1467 C 75.1493,-12.6973 75.3307,-13.4013 75.516,-14.2547 C 75.7,-15.108 75.8747,-16.012 76.0453,-16.9707 C 75.9907,-15.8853 75.9627,-14.848 75.9667,-13.8587 C 75.9667,-12.8693 76.0173,-12.0533 76.1173,-11.408 L 77.9227,-0.42 C 77.9387,-0.396 78.0947,-0.296 78.3893,-0.121333 C 78.6853,0.0546667 79.0213,0.154667 79.3933,0.178667 C 79.9013,0.172 80.72,0.142667 81.8453,0.0906667 C 82.9733,0.0386667 84.12,0.00933333 85.288,0.00266667 Z "/>
		<path id="dp_path010" fill="currentColor" fill-rule="evenodd" stroke="none" stroke-width="0" d="M 95.644,-5.44133 L 95.644,-24.9853 C 95.6293,-25.0107 95.4747,-25.1093 95.1787,-25.2853 C 94.8853,-25.4613 94.5533,-25.56 94.18,-25.5853 C 93.8693,-25.5853 93.3733,-25.5693 92.696,-25.54 C 92.0213,-25.512 91.2893,-25.4813 90.5053,-25.4547 C 89.7253,-25.428 89.0173,-25.412 88.392,-25.4093 L 88.392,-0.617333 C 88.4067,-0.593333 88.5613,-0.489333 88.8573,-0.312 C 89.1507,-0.130667 89.484,-0.0266667 89.856,-0.00266667 L 104.848,-0.00266667 C 104.943,-0.762667 105.057,-1.53333 105.191,-2.31733 C 105.327,-3.1 105.399,-3.65333 105.411,-3.97733 C 105.387,-4.34933 105.287,-4.68267 105.115,-4.976 C 104.943,-5.26933 104.843,-5.42667 104.819,-5.44133 Z "/>
		<path id="dp_path011" fill="currentColor" fill-rule="evenodd" stroke="none" stroke-width="0" d="M 108.233,-25.4027 L 108.233,-0.617333 C 108.248,-0.593333 108.403,-0.489333 108.699,-0.312 C 108.992,-0.130667 109.325,-0.0266667 109.697,-0.00266667 L 123.993,-0.00266667 C 124.088,-0.762667 124.203,-1.53333 124.336,-2.31733 C 124.472,-3.1 124.544,-3.65333 124.556,-3.97733 C 124.532,-4.34933 124.432,-4.68267 124.26,-4.976 C 124.088,-5.26933 123.988,-5.42667 123.964,-5.44133 L 115.485,-5.44133 L 115.485,-10.5587 L 120.8,-10.5587 C 121.232,-10.5653 121.575,-10.7067 121.828,-10.976 C 122.083,-11.248 122.233,-11.6027 122.283,-12.0373 L 122.621,-15.2707 L 115.485,-15.2707 L 115.485,-19.9653 L 124.048,-19.9653 C 124.143,-20.724 124.257,-21.496 124.391,-22.2787 C 124.527,-23.0627 124.599,-23.6133 124.611,-23.94 C 124.587,-24.312 124.487,-24.644 124.315,-24.9373 C 124.143,-25.2307 124.043,-25.388 124.019,-25.4027 Z "/>
		<path id="dp_path012" fill="currentColor" fill-rule="evenodd" stroke="none" stroke-width="0" d="M 137.377,-25.7667 C 134.392,-25.7413 132.1,-25.0107 130.496,-23.568 C 128.893,-22.124 128.083,-20.1133 128.068,-17.54 C 128.053,-16.8373 128.14,-16.088 128.337,-15.292 C 128.533,-14.4973 128.927,-13.72 129.516,-12.9573 C 130.107,-12.1987 130.984,-11.52 132.151,-10.9213 L 135.203,-9.40667 C 136.207,-8.93467 136.939,-8.544 137.399,-8.236 C 137.859,-7.924 138.085,-7.52267 138.079,-7.02933 C 138.061,-6.40667 137.795,-5.92533 137.275,-5.58933 C 136.757,-5.25333 136.085,-5.084 135.263,-5.07867 C 134.063,-5.124 133.068,-5.42267 132.281,-5.98 C 131.492,-6.53867 130.905,-7.096 130.517,-7.652 C 130.133,-8.212 129.94,-8.51067 129.94,-8.55333 C 129.909,-8.54133 129.683,-8.336 129.26,-7.93333 C 128.839,-7.53067 128.419,-7.01067 127.995,-6.36933 C 127.575,-5.728 127.348,-5.03867 127.315,-4.304 C 127.339,-3.40933 127.735,-2.61067 128.507,-1.912 C 129.28,-1.21333 130.297,-0.66 131.559,-0.257333 C 132.82,0.148 134.192,0.353333 135.68,0.36 C 138.627,0.345333 140.961,-0.384 142.685,-1.82667 C 144.412,-3.272 145.292,-5.34133 145.332,-8.03867 C 145.359,-9.352 145.065,-10.58 144.449,-11.7293 C 143.832,-12.8813 142.725,-13.8613 141.131,-14.672 L 138.021,-16.2 C 136.791,-16.7987 135.973,-17.2827 135.572,-17.6547 C 135.172,-18.0267 134.988,-18.408 135.019,-18.8 C 135.033,-19.4333 135.269,-19.9013 135.725,-20.2067 C 136.183,-20.5093 136.776,-20.6613 137.511,-20.6613 C 138.427,-20.6307 139.189,-20.44 139.797,-20.0827 C 140.405,-19.7227 140.859,-19.3667 141.159,-19.0093 C 141.46,-18.6493 141.609,-18.4587 141.609,-18.432 C 141.641,-18.4347 141.869,-18.592 142.292,-18.904 C 142.716,-19.212 143.139,-19.644 143.563,-20.1973 C 143.987,-20.752 144.213,-21.396 144.247,-22.1307 C 144.231,-22.9267 143.913,-23.592 143.296,-24.1333 C 142.68,-24.6707 141.853,-25.08 140.823,-25.3547 C 139.788,-25.6307 138.641,-25.7667 137.377,-25.7667 Z "/>
		<path id="dp_path013" fill="currentColor" fill-rule="evenodd" stroke="none" stroke-width="0" d="M 149.12,-25.4027 C 148.24,-25.4213 147.632,-25.4813 147.296,-25.5853 C 146.96,-25.6907 146.8,-25.7507 146.815,-25.7667 C 146.703,-24.94 146.573,-24.1053 146.425,-23.256 C 146.28,-22.4053 146.199,-21.7973 146.183,-21.4293 C 146.207,-21.0573 146.307,-20.724 146.48,-20.4307 C 146.652,-20.1347 146.752,-19.98 146.776,-19.9653 L 153.901,-19.9653 L 153.901,-3.632 L 153.901,-0.438667 C 153.917,-0.412 154.071,-0.308 154.368,-0.130667 C 154.661,0.052 154.993,0.154667 155.365,0.178667 C 155.677,0.178667 156.173,0.16 156.851,0.133333 C 157.525,0.102667 158.257,0.076 159.04,0.0453333 C 159.821,0.0146667 160.528,0 161.155,-0.00266667 L 161.155,-19.9653 L 165.924,-19.9627 C 166.804,-19.9467 167.412,-19.8867 167.748,-19.78 C 168.087,-19.6747 168.247,-19.6173 168.229,-19.6027 C 168.341,-20.4253 168.471,-21.2627 168.619,-22.112 C 168.771,-22.96 168.852,-23.5707 168.864,-23.936 C 168.84,-24.308 168.74,-24.644 168.568,-24.9373 C 168.396,-25.2307 168.296,-25.3853 168.268,-25.4027 Z "/>
		<path id="dp_path014" fill="currentColor" fill-rule="evenodd" stroke="none" stroke-width="0" d="M 185.961,-24.9853 C 185.944,-25.0107 185.789,-25.1093 185.496,-25.2853 C 185.2,-25.4613 184.867,-25.56 184.495,-25.5853 C 184.287,-25.5853 183.815,-25.5693 183.08,-25.54 C 182.348,-25.512 181.519,-25.4813 180.593,-25.4547 C 179.668,-25.428 178.815,-25.412 178.032,-25.4093 C 178.049,-25.3733 178.059,-25.068 178.061,-24.4933 C 178.065,-23.9187 177.959,-23.2893 177.739,-22.6053 L 169.608,-0.42 C 169.623,-0.396 169.777,-0.296 170.073,-0.121333 C 170.367,0.0546667 170.7,0.154667 171.075,0.178667 C 171.52,0.172 172.257,0.142667 173.283,0.0906667 C 174.312,0.0386667 175.355,0.00933333 176.42,0.00266667 L 178.528,-6.08267 L 185.393,-6.08267 L 187.323,-0.42 C 187.341,-0.396 187.496,-0.296 187.792,-0.121333 C 188.085,0.0546667 188.417,0.154667 188.789,0.178667 C 189.116,0.178667 189.628,0.162667 190.327,0.133333 C 191.028,0.105333 191.815,0.076 192.685,0.048 C 193.556,0.0213333 194.409,0.00666667 195.244,0.00266667 Z M 181.573,-20.1947 C 181.64,-19.904 181.785,-19.3213 182.012,-18.444 C 182.239,-17.5667 182.544,-16.4627 182.931,-15.132 L 184.201,-10.7947 L 179.341,-10.7947 L 180.6,-15.4613 C 180.741,-15.9973 180.881,-16.584 181.013,-17.228 C 181.147,-17.8693 181.261,-18.4653 181.361,-19.0093 C 181.461,-19.5573 181.531,-19.9493 181.573,-20.1947 Z "/>
		<path id="dp_path015" fill="currentColor" fill-rule="evenodd" stroke="none" stroke-width="0" d="M 206.029,-25.7627 C 204.925,-25.76 203.755,-25.7293 202.517,-25.6693 C 201.277,-25.612 200.219,-25.5547 199.336,-25.4973 C 198.449,-25.436 197.989,-25.4067 197.947,-25.4 L 197.951,-0.00266667 C 197.992,0.00266667 198.437,0.0333333 199.281,0.0933333 C 200.121,0.150667 201.111,0.209333 202.243,0.266667 C 203.373,0.326667 204.392,0.357333 205.297,0.36 C 208.779,0.341333 211.779,-0.26 214.304,-1.44933 C 216.829,-2.63467 218.78,-4.292 220.151,-6.41867 C 221.521,-8.544 222.216,-11.028 222.232,-13.868 C 222.261,-17.54 220.967,-20.428 218.351,-22.5387 C 215.737,-24.6467 211.628,-25.7213 206.029,-25.7627 Z M 207.959,-20.3307 C 210.031,-20.3307 211.681,-19.78 212.909,-18.676 C 214.137,-17.576 214.767,-15.9093 214.797,-13.6827 C 214.8,-12.3187 214.555,-10.9853 214.056,-9.67867 C 213.557,-8.372 212.78,-7.28667 211.719,-6.42133 C 210.66,-5.55867 209.289,-5.112 207.611,-5.07867 C 207.091,-5.084 206.571,-5.10533 206.047,-5.14133 C 205.527,-5.17867 205.245,-5.19867 205.203,-5.20533 L 205.2,-20.08 C 205.231,-20.092 205.521,-20.132 206.071,-20.204 C 206.621,-20.276 207.251,-20.3187 207.959,-20.3307 Z "/>
		<path id="dp_path016" fill="currentColor" fill-rule="evenodd" stroke="none" stroke-width="0" d="M 225.631,-25.4027 L 225.631,-0.617333 C 225.645,-0.593333 225.8,-0.489333 226.096,-0.312 C 226.389,-0.130667 226.723,-0.0266667 227.095,-0.00266667 L 241.391,-0.00266667 C 241.485,-0.762667 241.6,-1.53333 241.733,-2.31733 C 241.869,-3.1 241.941,-3.65333 241.953,-3.97733 C 241.929,-4.34933 241.829,-4.68267 241.657,-4.976 C 241.485,-5.26933 241.385,-5.42667 241.361,-5.44133 L 232.883,-5.44133 L 232.883,-10.5587 L 238.197,-10.5587 C 238.629,-10.5653 238.972,-10.7067 239.225,-10.976 C 239.48,-11.248 239.631,-11.6027 239.68,-12.0373 L 240.019,-15.2707 L 232.883,-15.2707 L 232.883,-19.9653 L 241.445,-19.9653 C 241.54,-20.724 241.655,-21.496 241.788,-22.2787 C 241.924,-23.0627 241.996,-23.6133 242.008,-23.94 C 241.984,-24.312 241.884,-24.644 241.712,-24.9373 C 241.54,-25.2307 241.44,-25.388 241.416,-25.4027 Z "/>
		<path id="dp_path017" fill="currentColor" fill-rule="evenodd" stroke="none" stroke-width="0" d="M 267.167,-25.5853 C 267.181,-25.5813 266.888,-25.5667 266.289,-25.536 C 265.691,-25.5093 264.988,-25.4787 264.187,-25.452 C 263.385,-25.4213 262.689,-25.4067 262.1,-25.4027 L 262.1,-16.856 C 262.103,-16.0053 262.188,-14.984 262.348,-13.792 C 262.508,-12.6 262.715,-11.3427 262.963,-10.024 C 262.533,-11.1667 262.083,-12.2347 261.613,-13.224 C 261.144,-14.212 260.669,-15.0387 260.192,-15.7 L 253.371,-24.9853 C 253.353,-25.0107 253.199,-25.1093 252.905,-25.2853 C 252.609,-25.4613 252.276,-25.56 251.904,-25.5853 C 251.644,-25.5853 251.181,-25.5693 250.523,-25.54 C 249.86,-25.512 249.113,-25.4813 248.277,-25.4547 C 247.443,-25.428 246.639,-25.412 245.864,-25.4093 C 245.873,-25.388 245.919,-25.1733 245.997,-24.768 C 246.073,-24.36 246.119,-23.8787 246.131,-23.3227 L 246.131,-0.438667 C 246.145,-0.412 246.3,-0.308 246.596,-0.130667 C 246.889,0.052 247.223,0.154667 247.595,0.178667 C 247.885,0.178667 248.384,0.16 249.097,0.133333 C 249.812,0.102667 250.523,0.076 251.224,0.0453333 C 251.925,0.0146667 252.404,0 252.657,-0.00266667 L 252.657,-11.648 C 252.655,-12.14 252.621,-12.7787 252.552,-13.5627 C 252.485,-14.3453 252.407,-15.1493 252.313,-15.9787 C 252.643,-15.056 252.996,-14.1573 253.371,-13.2893 C 253.747,-12.4213 254.109,-11.7413 254.46,-11.2453 L 262.412,-0.438667 C 262.427,-0.412 262.584,-0.308 262.877,-0.130667 C 263.171,0.052 263.504,0.154667 263.876,0.178667 C 264.439,0.172 265.131,0.142667 265.963,0.088 C 266.791,0.036 267.68,0.00666667 268.627,-0.00266667 L 268.627,-24.9853 C 268.612,-25.004 268.457,-25.1013 268.164,-25.2787 C 267.871,-25.4573 267.539,-25.5573 267.167,-25.5853 Z M 267.163,-25.5853 C 267.163,-25.5853 267.163,-25.5853 267.163,-25.5853 Z "/>
	</g>
	<g id="dp_dp018" transform="matrix(1,0,0,1,71.8098,184.236)">
		<path id="dp_path019" fill="currentColor" fill-rule="evenodd" stroke="none" stroke-width="0" d="M 0.541333,-7.88533 C 0.432,-7.88667 0.352,-7.89467 0.3,-7.908 C 0.249333,-7.92133 0.224,-7.92933 0.224,-7.932 C 0.213333,-7.84 0.2,-7.74267 0.185333,-7.644 C 0.169333,-7.54533 0.16,-7.46933 0.158667,-7.416 C 0.161333,-7.37067 0.173333,-7.32933 0.192,-7.292 C 0.213333,-7.25333 0.224,-7.232 0.226667,-7.22933 L 3.01467,-7.22933 L 3.01467,-0.0453333 C 3.016,-0.0426667 3.03733,-0.0306667 3.076,-0.008 C 3.11333,0.012 3.15467,0.024 3.2,0.0266667 C 3.26667,0.0266667 3.36667,0.0226667 3.49733,0.0146667 C 3.62933,0.00666667 3.748,0.00133333 3.85733,0.00133333 L 3.85733,-7.22933 L 6.33067,-7.22933 C 6.43867,-7.228 6.51867,-7.22 6.57067,-7.20667 C 6.62267,-7.192 6.648,-7.184 6.648,-7.18133 C 6.65733,-7.27467 6.67067,-7.37067 6.68533,-7.46933 C 6.70133,-7.56933 6.71067,-7.64533 6.712,-7.69733 C 6.70933,-7.74267 6.69867,-7.784 6.67867,-7.82267 C 6.65867,-7.86133 6.64667,-7.88133 6.644,-7.88533 Z "/>
		<path id="dp_path020" fill="currentColor" fill-rule="evenodd" stroke="none" stroke-width="0" d="M 10.2853,-5.744 C 9.92133,-5.73067 9.60267,-5.60133 9.33067,-5.35733 C 9.06133,-5.11467 8.83867,-4.83867 8.664,-4.532 C 8.64267,-4.88267 8.58,-5.16667 8.476,-5.38533 C 8.37067,-5.604 8.228,-5.71467 8.04533,-5.72267 C 7.92667,-5.71467 7.82933,-5.68133 7.75333,-5.62533 C 7.676,-5.56933 7.636,-5.536 7.63333,-5.528 C 7.64533,-5.52933 7.69067,-5.41333 7.76933,-5.18133 C 7.84933,-4.948 7.89333,-4.58267 7.90533,-4.08667 L 7.90533,-1.12533 L 7.90533,-0.0453333 C 7.90667,-0.0426667 7.928,-0.0306667 7.96667,-0.008 C 8.004,0.012 8.04667,0.024 8.09067,0.0266667 C 8.14933,0.0266667 8.23333,0.0226667 8.34267,0.0146667 C 8.45333,0.00666667 8.56267,0.00266667 8.67067,0.00133333 L 8.67067,-1.12533 L 8.67067,-3.64133 C 8.732,-3.80133 8.824,-3.98933 8.94667,-4.20533 C 9.07067,-4.42133 9.224,-4.61333 9.40933,-4.77867 C 9.59333,-4.94533 9.80667,-5.03333 10.0507,-5.04267 C 10.2307,-5.032 10.364,-4.99067 10.4507,-4.91867 C 10.536,-4.84667 10.58,-4.80533 10.58,-4.79467 C 10.5907,-4.79867 10.6347,-4.848 10.7107,-4.94533 C 10.7867,-5.04267 10.8307,-5.168 10.8413,-5.32133 C 10.8413,-5.45467 10.7947,-5.55867 10.7013,-5.632 C 10.608,-5.70533 10.4693,-5.744 10.2853,-5.744 Z "/>
		<path id="dp_path021" fill="currentColor" fill-rule="evenodd" stroke="none" stroke-width="0" d="M 12.9333,-7.2 C 13.0653,-7.20267 13.1907,-7.25067 13.3053,-7.34267 C 13.4213,-7.43333 13.4827,-7.55467 13.4893,-7.704 C 13.4893,-7.81867 13.4507,-7.916 13.3773,-7.99867 C 13.3027,-8.08133 13.2013,-8.12533 13.072,-8.12933 C 12.9387,-8.12667 12.8147,-8.08 12.6987,-7.98933 C 12.584,-7.89733 12.5227,-7.77733 12.5147,-7.62533 C 12.516,-7.50933 12.5533,-7.412 12.628,-7.32933 C 12.7027,-7.248 12.804,-7.20533 12.9333,-7.20133 Z M 14.576,-7.20133 C 14.708,-7.20267 14.8333,-7.25067 14.948,-7.34267 C 15.064,-7.43333 15.1253,-7.55467 15.132,-7.704 C 15.132,-7.81867 15.0947,-7.916 15.02,-7.99867 C 14.9453,-8.08133 14.844,-8.12533 14.7147,-8.12933 C 14.5813,-8.12667 14.4573,-8.08 14.3427,-7.98933 C 14.2267,-7.89733 14.1653,-7.77733 14.1587,-7.62533 C 14.1587,-7.50933 14.196,-7.412 14.2707,-7.32933 C 14.3453,-7.248 14.4467,-7.20533 14.576,-7.20133 Z M 15.8307,-1.616 L 15.8427,-3.532 C 15.8427,-4.25867 15.6667,-4.81067 15.312,-5.18267 C 14.9573,-5.556 14.4627,-5.744 13.8293,-5.744 C 13.448,-5.73867 13.1173,-5.67867 12.836,-5.56267 C 12.556,-5.448 12.3387,-5.312 12.1853,-5.156 C 12.0307,-4.99867 11.9533,-4.856 11.9507,-4.72667 C 11.9573,-4.63733 11.9867,-4.57333 12.036,-4.532 C 12.0867,-4.49067 12.116,-4.472 12.1213,-4.472 C 12.1213,-4.48133 12.176,-4.54133 12.284,-4.65333 C 12.392,-4.76667 12.56,-4.87867 12.784,-4.992 C 13.0067,-5.104 13.292,-5.164 13.6387,-5.17333 C 14.1107,-5.172 14.4693,-5.036 14.716,-4.76533 C 14.9613,-4.49467 15.084,-4.09733 15.0827,-3.57333 L 15.08,-3.17467 L 13.6733,-3.03867 C 12.9813,-2.97733 12.456,-2.82 12.1027,-2.56933 C 11.748,-2.31867 11.5693,-1.948 11.568,-1.45733 C 11.5747,-0.954667 11.7213,-0.569333 12.0053,-0.298667 C 12.2907,-0.0266667 12.6707,0.109333 13.1467,0.112 C 13.4467,0.106667 13.7253,0.056 13.9813,-0.04 C 14.2373,-0.138667 14.4627,-0.252 14.656,-0.382667 C 14.8493,-0.512 15.0053,-0.630667 15.1187,-0.736 C 15.1613,-0.486667 15.2307,-0.290667 15.328,-0.142667 C 15.424,0.00533333 15.5453,0.0813333 15.6907,0.084 C 15.808,0.076 15.9067,0.0426667 15.9827,-0.0146667 C 16.0587,-0.072 16.0987,-0.102667 16.1,-0.112 C 16.0893,-0.109333 16.044,-0.225333 15.9653,-0.457333 C 15.8867,-0.690667 15.8413,-1.05467 15.8307,-1.54933 Z M 13.388,-0.496 C 13.0587,-0.5 12.8013,-0.586667 12.616,-0.758667 C 12.432,-0.929333 12.3373,-1.16933 12.3347,-1.47733 C 12.3413,-1.828 12.4733,-2.08667 12.7293,-2.25333 C 12.9853,-2.42 13.324,-2.52 13.7453,-2.556 L 15.076,-2.68267 L 15.0693,-1.616 L 15.0693,-1.35733 C 15.0693,-1.31867 15.0693,-1.28133 15.0707,-1.244 C 14.9933,-1.16933 14.872,-1.07333 14.7107,-0.957333 C 14.5467,-0.841333 14.352,-0.737333 14.1267,-0.644 C 13.9,-0.550667 13.6547,-0.502667 13.388,-0.496 Z "/>
		<path id="dp_path022" fill="currentColor" fill-rule="evenodd" stroke="none" stroke-width="0" d="M 22.3453,-3.78133 C 22.3413,-4.41467 22.1853,-4.89867 21.8773,-5.23467 C 21.5693,-5.572 21.132,-5.74133 20.564,-5.744 C 20.2347,-5.74 19.9347,-5.68933 19.6613,-5.59333 C 19.3893,-5.49733 19.152,-5.384 18.952,-5.25467 C 18.7493,-5.12533 18.5907,-5.008 18.476,-4.90267 C 18.432,-5.14667 18.3627,-5.344 18.2653,-5.48933 C 18.168,-5.63733 18.0467,-5.712 17.8987,-5.716 C 17.78,-5.70933 17.6827,-5.676 17.6067,-5.61867 C 17.5293,-5.56133 17.4893,-5.528 17.4867,-5.52133 C 17.4987,-5.52533 17.544,-5.41067 17.6227,-5.17733 C 17.7027,-4.944 17.7467,-4.58 17.7587,-4.08267 L 17.7587,-1.12533 L 17.7587,-0.0453333 C 17.76,-0.0426667 17.7813,-0.0306667 17.82,-0.008 C 17.8573,0.012 17.9,0.024 17.944,0.0266667 C 18.0027,0.0266667 18.0867,0.0226667 18.196,0.0146667 C 18.3067,0.00666667 18.416,0.00266667 18.524,0.00133333 L 18.524,-1.12533 L 18.524,-4.02267 L 18.524,-4.28133 C 18.524,-4.31867 18.524,-4.35733 18.524,-4.396 C 18.6013,-4.47067 18.724,-4.56667 18.8907,-4.68267 C 19.0573,-4.79867 19.2587,-4.90267 19.4947,-4.99733 C 19.7293,-5.09067 19.9907,-5.14 20.276,-5.14533 C 20.7,-5.14267 21.024,-5.01867 21.2453,-4.77333 C 21.4653,-4.528 21.5773,-4.176 21.5787,-3.72 L 21.5787,-0.0453333 C 21.5813,-0.0426667 21.6013,-0.0306667 21.64,-0.008 C 21.6787,0.012 21.7213,0.024 21.7653,0.0266667 C 21.824,0.0266667 21.9067,0.0226667 22.0173,0.0146667 C 22.128,0.00666667 22.236,0.00266667 22.3453,0.00133333 Z "/>
		<path id="dp_path023" fill="currentColor" fill-rule="evenodd" stroke="none" stroke-width="0" d="M 24.5747,-7.22 C 24.7133,-7.22267 24.8427,-7.26933 24.96,-7.36133 C 25.0773,-7.452 25.14,-7.572 25.148,-7.72133 C 25.1467,-7.836 25.1067,-7.93467 25.028,-8.01733 C 24.9507,-8.1 24.8427,-8.14267 24.708,-8.14667 C 24.5693,-8.14533 24.44,-8.09733 24.3227,-8.008 C 24.2053,-7.91733 24.1427,-7.796 24.136,-7.644 C 24.136,-7.52933 24.1773,-7.432 24.2547,-7.34933 C 24.332,-7.26667 24.44,-7.224 24.5747,-7.22 Z M 25.024,-4.68133 L 25.024,-4.68267 L 25.024,-5.60933 C 25.0227,-5.612 25.004,-5.62267 24.9667,-5.644 C 24.9307,-5.664 24.8907,-5.676 24.8467,-5.67867 C 24.7933,-5.67467 24.704,-5.65467 24.5787,-5.61867 C 24.4533,-5.58133 24.3293,-5.55067 24.2053,-5.52533 C 24.208,-5.51467 24.216,-5.408 24.2307,-5.2 C 24.2467,-4.99333 24.2547,-4.75067 24.2587,-4.47067 L 24.2587,-1.616 L 24.2587,-1.35867 C 24.2587,-0.944 24.312,-0.601333 24.4187,-0.333333 C 24.5253,-0.0653333 24.68,0.0746667 24.884,0.084 C 25.0027,0.076 25.1,0.0426667 25.176,-0.0146667 C 25.2533,-0.072 25.2933,-0.102667 25.296,-0.112 C 25.284,-0.109333 25.24,-0.224 25.16,-0.457333 C 25.0813,-0.690667 25.036,-1.05467 25.024,-1.55067 Z "/>
		<path id="dp_path024" fill="currentColor" fill-rule="evenodd" stroke="none" stroke-width="0" d="M 31.6573,-3.78133 C 31.6533,-4.41467 31.4973,-4.89867 31.1893,-5.23467 C 30.8813,-5.572 30.444,-5.74133 29.876,-5.744 C 29.5467,-5.74 29.2467,-5.68933 28.9733,-5.59333 C 28.7013,-5.49733 28.464,-5.384 28.264,-5.25467 C 28.0613,-5.12533 27.9027,-5.008 27.788,-4.90267 C 27.744,-5.14667 27.6747,-5.344 27.5773,-5.48933 C 27.48,-5.63733 27.3587,-5.712 27.2107,-5.716 C 27.092,-5.70933 26.9947,-5.676 26.9187,-5.61867 C 26.8413,-5.56133 26.8013,-5.528 26.7987,-5.52133 C 26.8107,-5.52533 26.856,-5.41067 26.9347,-5.17733 C 27.0147,-4.944 27.0587,-4.58 27.0707,-4.08267 L 27.0707,-1.12533 L 27.0707,-0.0453333 C 27.072,-0.0426667 27.0933,-0.0306667 27.132,-0.008 C 27.1693,0.012 27.212,0.024 27.256,0.0266667 C 27.3147,0.0266667 27.3987,0.0226667 27.508,0.0146667 C 27.6187,0.00666667 27.728,0.00266667 27.836,0.00133333 L 27.836,-1.12533 L 27.836,-4.02267 L 27.836,-4.28133 C 27.836,-4.31867 27.836,-4.35733 27.836,-4.396 C 27.9133,-4.47067 28.036,-4.56667 28.2027,-4.68267 C 28.3693,-4.79867 28.5707,-4.90267 28.8067,-4.99733 C 29.0413,-5.09067 29.3027,-5.14 29.588,-5.14533 C 30.012,-5.14267 30.336,-5.01867 30.5573,-4.77333 C 30.7773,-4.528 30.8893,-4.176 30.8907,-3.72 L 30.8907,-0.0453333 C 30.8933,-0.0426667 30.9133,-0.0306667 30.952,-0.008 C 30.9907,0.012 31.0333,0.024 31.0773,0.0266667 C 31.136,0.0266667 31.2187,0.0226667 31.3293,0.0146667 C 31.44,0.00666667 31.548,0.00266667 31.6573,0.00133333 Z "/>
		<path id="dp_path025" fill="currentColor" fill-rule="evenodd" stroke="none" stroke-width="0" d="M 38.4253,-4.95867 L 38.4253,-5.304 C 38.4253,-5.372 38.4067,-5.42 38.3693,-5.44933 C 38.3333,-5.47867 38.2813,-5.48667 38.216,-5.472 L 36.952,-5.20133 C 36.768,-5.37467 36.5467,-5.50933 36.288,-5.60267 C 36.0293,-5.696 35.74,-5.744 35.42,-5.744 C 34.764,-5.73733 34.24,-5.556 33.8533,-5.20133 C 33.4667,-4.84933 33.268,-4.372 33.26,-3.772 C 33.2613,-3.40933 33.34,-3.092 33.4973,-2.81867 C 33.6533,-2.54533 33.872,-2.32933 34.156,-2.168 C 33.9667,-2.08 33.7867,-1.944 33.616,-1.76267 C 33.4467,-1.58133 33.356,-1.34533 33.3453,-1.05467 C 33.3467,-0.842667 33.4013,-0.653333 33.512,-0.485333 C 33.6227,-0.317333 33.7787,-0.190667 33.9813,-0.105333 C 33.732,0.0213333 33.508,0.194667 33.3107,0.416 C 33.112,0.636 33.008,0.910667 32.9973,1.24 C 32.992,1.61067 33.156,1.92533 33.4853,2.184 C 33.816,2.444 34.3387,2.57867 35.0533,2.59067 C 35.6053,2.58667 36.1,2.49467 36.5413,2.31067 C 36.9813,2.12933 37.332,1.87467 37.5907,1.54933 C 37.8507,1.22267 37.9827,0.845333 37.988,0.413333 C 37.9933,0.032 37.872,-0.277333 37.6253,-0.514667 C 37.38,-0.752 36.9827,-0.874667 36.4333,-0.881333 C 36.256,-0.88 36.048,-0.869333 35.8107,-0.848 C 35.5733,-0.828 35.348,-0.808 35.1387,-0.786667 C 34.9267,-0.766667 34.772,-0.754667 34.6733,-0.753333 C 34.496,-0.756 34.3547,-0.802667 34.2507,-0.893333 C 34.148,-0.985333 34.0947,-1.10267 34.092,-1.24667 C 34.1013,-1.416 34.164,-1.56267 34.2813,-1.68667 C 34.3973,-1.81067 34.5147,-1.908 34.632,-1.976 C 34.848,-1.91733 35.0813,-1.888 35.3347,-1.888 C 35.9933,-1.896 36.5173,-2.07333 36.9053,-2.42 C 37.2933,-2.76533 37.492,-3.22533 37.5013,-3.79867 C 37.4987,-4.01867 37.4653,-4.21733 37.404,-4.392 C 37.34,-4.56667 37.268,-4.71467 37.1853,-4.836 C 37.3053,-4.84 37.4307,-4.84933 37.564,-4.86267 Z M 35.4147,-2.43067 C 35.088,-2.43467 34.8213,-2.508 34.612,-2.64933 C 34.4027,-2.79067 34.248,-2.97067 34.148,-3.18933 C 34.048,-3.40933 34,-3.64 34,-3.88 C 34.004,-4.27867 34.124,-4.596 34.3613,-4.83467 C 34.5973,-5.07333 34.924,-5.19467 35.3413,-5.20133 C 35.6707,-5.196 35.9413,-5.12267 36.152,-4.98 C 36.3627,-4.83867 36.5187,-4.656 36.62,-4.436 C 36.7213,-4.21467 36.7707,-3.98267 36.7707,-3.74133 C 36.7653,-3.34667 36.644,-3.03067 36.404,-2.79467 C 36.1653,-2.55867 35.8347,-2.43733 35.4147,-2.43067 Z M 37.1747,0.601333 C 37.1693,0.865333 37.0707,1.10533 36.88,1.31867 C 36.688,1.53067 36.4333,1.7 36.1173,1.82533 C 35.8013,1.952 35.4533,2.016 35.0747,2.01867 C 34.596,2.012 34.244,1.92 34.0187,1.74533 C 33.7907,1.56933 33.6787,1.35467 33.68,1.10133 C 33.6933,0.832 33.7933,0.604 33.9787,0.417333 C 34.164,0.232 34.3587,0.088 34.5627,-0.0146667 C 34.696,-0.02 34.8653,-0.0306667 35.0693,-0.0466667 C 35.2747,-0.0613333 35.48,-0.076 35.684,-0.0906667 C 35.888,-0.105333 36.056,-0.112 36.1867,-0.113333 C 36.5187,-0.112 36.7653,-0.0493333 36.9293,0.072 C 37.092,0.194667 37.1747,0.372 37.1747,0.601333 Z "/>
		<path id="dp_path026" fill="currentColor" fill-rule="evenodd" stroke="none" stroke-width="0" d="M 41.1667,-5.744 C 40.608,-5.74 40.1627,-5.60533 39.8307,-5.34 C 39.4987,-5.07467 39.3293,-4.70667 39.3213,-4.23333 C 39.3187,-3.93067 39.4027,-3.672 39.5747,-3.456 C 39.7467,-3.24 40.02,-3.04 40.3987,-2.85333 L 41.1907,-2.45333 C 41.4733,-2.31733 41.688,-2.172 41.8373,-2.01867 C 41.9853,-1.86667 42.06,-1.67867 42.0613,-1.45467 C 42.0547,-1.15467 41.9373,-0.914667 41.7133,-0.738667 C 41.488,-0.562667 41.2,-0.472 40.848,-0.468 C 40.512,-0.48 40.2347,-0.550667 40.0173,-0.684 C 39.8,-0.816 39.6387,-0.948 39.5333,-1.08 C 39.428,-1.21333 39.376,-1.28267 39.376,-1.29333 C 39.364,-1.292 39.3133,-1.24933 39.2253,-1.16533 C 39.1373,-1.084 39.088,-0.970667 39.0747,-0.829333 C 39.0867,-0.6 39.26,-0.388 39.5947,-0.194667 C 39.928,-0.00266667 40.3507,0.1 40.8587,0.112 C 41.4293,0.106667 41.8987,-0.04 42.264,-0.326667 C 42.628,-0.613333 42.8173,-1.01067 42.8293,-1.51867 C 42.8253,-1.876 42.724,-2.17733 42.5267,-2.42533 C 42.3307,-2.672 42.064,-2.87733 41.7293,-3.04133 L 40.9373,-3.43733 C 40.6427,-3.58 40.4267,-3.71067 40.2907,-3.832 C 40.1533,-3.95333 40.0867,-4.11067 40.0867,-4.30667 C 40.0947,-4.58267 40.1987,-4.79467 40.396,-4.94133 C 40.5947,-5.088 40.8453,-5.16267 41.1507,-5.164 C 41.4067,-5.15733 41.6213,-5.11467 41.7933,-5.03333 C 41.9653,-4.95333 42.096,-4.87333 42.184,-4.792 C 42.2707,-4.712 42.3147,-4.66933 42.3147,-4.66267 C 42.3267,-4.66533 42.3733,-4.70267 42.4547,-4.77733 C 42.536,-4.852 42.584,-4.95067 42.5947,-5.07467 C 42.5867,-5.256 42.4507,-5.412 42.1893,-5.54133 C 41.9267,-5.67067 41.5853,-5.73867 41.1667,-5.744 Z "/>
		<path id="dp_path027" fill="currentColor" fill-rule="evenodd" stroke="none" stroke-width="0" d="M 49.1787,-4.95867 L 49.1787,-5.304 C 49.1787,-5.372 49.16,-5.42 49.1227,-5.44933 C 49.0867,-5.47867 49.0347,-5.48667 48.9693,-5.472 L 47.7053,-5.20133 C 47.5213,-5.37467 47.3,-5.50933 47.0413,-5.60267 C 46.7827,-5.696 46.4933,-5.744 46.1733,-5.744 C 45.5173,-5.73733 44.9933,-5.556 44.6067,-5.20133 C 44.22,-4.84933 44.0213,-4.372 44.0133,-3.772 C 44.0147,-3.40933 44.0933,-3.092 44.2507,-2.81867 C 44.4067,-2.54533 44.6253,-2.32933 44.9093,-2.168 C 44.72,-2.08 44.54,-1.944 44.3693,-1.76267 C 44.2,-1.58133 44.1093,-1.34533 44.0987,-1.05467 C 44.1,-0.842667 44.1547,-0.653333 44.2653,-0.485333 C 44.376,-0.317333 44.532,-0.190667 44.7347,-0.105333 C 44.4853,0.0213333 44.2613,0.194667 44.064,0.416 C 43.8653,0.636 43.7613,0.910667 43.7507,1.24 C 43.7453,1.61067 43.9093,1.92533 44.2387,2.184 C 44.5693,2.444 45.092,2.57867 45.8067,2.59067 C 46.3587,2.58667 46.8533,2.49467 47.2947,2.31067 C 47.7347,2.12933 48.0853,1.87467 48.344,1.54933 C 48.604,1.22267 48.736,0.845333 48.7413,0.413333 C 48.7467,0.032 48.6253,-0.277333 48.3787,-0.514667 C 48.1333,-0.752 47.736,-0.874667 47.1867,-0.881333 C 47.0093,-0.88 46.8013,-0.869333 46.564,-0.848 C 46.3267,-0.828 46.1013,-0.808 45.892,-0.786667 C 45.68,-0.766667 45.5253,-0.754667 45.4267,-0.753333 C 45.2493,-0.756 45.108,-0.802667 45.004,-0.893333 C 44.9013,-0.985333 44.848,-1.10267 44.8453,-1.24667 C 44.8547,-1.416 44.9173,-1.56267 45.0347,-1.68667 C 45.1507,-1.81067 45.268,-1.908 45.3853,-1.976 C 45.6013,-1.91733 45.8347,-1.888 46.088,-1.888 C 46.7467,-1.896 47.2707,-2.07333 47.6587,-2.42 C 48.0467,-2.76533 48.2453,-3.22533 48.2547,-3.79867 C 48.252,-4.01867 48.2187,-4.21733 48.1573,-4.392 C 48.0933,-4.56667 48.0213,-4.71467 47.9387,-4.836 C 48.0587,-4.84 48.184,-4.84933 48.3173,-4.86267 Z M 46.168,-2.43067 C 45.8413,-2.43467 45.5747,-2.508 45.3653,-2.64933 C 45.156,-2.79067 45.0013,-2.97067 44.9013,-3.18933 C 44.8013,-3.40933 44.7533,-3.64 44.7533,-3.88 C 44.7573,-4.27867 44.8773,-4.596 45.1147,-4.83467 C 45.3507,-5.07333 45.6773,-5.19467 46.0947,-5.20133 C 46.424,-5.196 46.6947,-5.12267 46.9053,-4.98 C 47.116,-4.83867 47.272,-4.656 47.3733,-4.436 C 47.4747,-4.21467 47.524,-3.98267 47.524,-3.74133 C 47.5187,-3.34667 47.3973,-3.03067 47.1573,-2.79467 C 46.9187,-2.55867 46.588,-2.43733 46.168,-2.43067 Z M 47.928,0.601333 C 47.9227,0.865333 47.824,1.10533 47.6333,1.31867 C 47.4413,1.53067 47.1867,1.7 46.8707,1.82533 C 46.5547,1.952 46.2067,2.016 45.828,2.01867 C 45.3493,2.012 44.9973,1.92 44.772,1.74533 C 44.544,1.56933 44.432,1.35467 44.4333,1.10133 C 44.4467,0.832 44.5467,0.604 44.732,0.417333 C 44.9173,0.232 45.112,0.088 45.316,-0.0146667 C 45.4493,-0.02 45.6187,-0.0306667 45.8227,-0.0466667 C 46.028,-0.0613333 46.2333,-0.076 46.4373,-0.0906667 C 46.6413,-0.105333 46.8093,-0.112 46.94,-0.113333 C 47.272,-0.112 47.5187,-0.0493333 47.6827,0.072 C 47.8453,0.194667 47.928,0.372 47.928,0.601333 Z "/>
		<path id="dp_path028" fill="currentColor" fill-rule="evenodd" stroke="none" stroke-width="0" d="M 51.0373,-1.616 L 51.0373,-7.568 L 51.0373,-8.49467 C 51.036,-8.496 51.0173,-8.50667 50.98,-8.52533 C 50.944,-8.54667 50.904,-8.55733 50.86,-8.56133 C 50.8067,-8.55733 50.7173,-8.53733 50.592,-8.5 C 50.4667,-8.464 50.3427,-8.43333 50.2187,-8.408 C 50.2213,-8.39733 50.2293,-8.28933 50.244,-8.08267 C 50.26,-7.87733 50.268,-7.63467 50.272,-7.35467 L 50.272,-1.616 L 50.272,-1.35867 C 50.272,-0.944 50.3253,-0.601333 50.432,-0.333333 C 50.5387,-0.0653333 50.6933,0.0746667 50.8973,0.084 C 51.016,0.076 51.1133,0.0426667 51.1893,-0.0146667 C 51.2667,-0.072 51.3067,-0.102667 51.3093,-0.112 C 51.2973,-0.109333 51.2533,-0.224 51.1733,-0.457333 C 51.0947,-0.690667 51.0493,-1.05467 51.0373,-1.552 Z "/>
		<path id="dp_path029" fill="currentColor" fill-rule="evenodd" stroke="none" stroke-width="0" d="M 54.0267,-7.2 C 54.1587,-7.20267 54.284,-7.25067 54.3987,-7.34267 C 54.5147,-7.43333 54.576,-7.55467 54.5827,-7.704 C 54.5827,-7.81867 54.544,-7.916 54.4707,-7.99867 C 54.396,-8.08133 54.2947,-8.12533 54.1653,-8.12933 C 54.032,-8.12667 53.908,-8.08 53.792,-7.98933 C 53.6773,-7.89733 53.616,-7.77733 53.608,-7.62533 C 53.6093,-7.50933 53.6467,-7.412 53.7213,-7.32933 C 53.796,-7.248 53.8973,-7.20533 54.0267,-7.20133 Z M 55.6693,-7.20133 C 55.8013,-7.20267 55.9267,-7.25067 56.0413,-7.34267 C 56.1573,-7.43333 56.2187,-7.55467 56.2253,-7.704 C 56.2253,-7.81867 56.188,-7.916 56.1133,-7.99867 C 56.0387,-8.08133 55.9373,-8.12533 55.808,-8.12933 C 55.6747,-8.12667 55.5507,-8.08 55.436,-7.98933 C 55.32,-7.89733 55.2587,-7.77733 55.252,-7.62533 C 55.252,-7.50933 55.2893,-7.412 55.364,-7.32933 C 55.4387,-7.248 55.54,-7.20533 55.6693,-7.20133 Z M 56.924,-1.616 L 56.936,-3.532 C 56.936,-4.25867 56.76,-4.81067 56.4053,-5.18267 C 56.0507,-5.556 55.556,-5.744 54.9227,-5.744 C 54.5413,-5.73867 54.2107,-5.67867 53.9293,-5.56267 C 53.6493,-5.448 53.432,-5.312 53.2787,-5.156 C 53.124,-4.99867 53.0467,-4.856 53.044,-4.72667 C 53.0507,-4.63733 53.08,-4.57333 53.1293,-4.532 C 53.18,-4.49067 53.2093,-4.472 53.2147,-4.472 C 53.2147,-4.48133 53.2693,-4.54133 53.3773,-4.65333 C 53.4853,-4.76667 53.6533,-4.87867 53.8773,-4.992 C 54.1,-5.104 54.3853,-5.164 54.732,-5.17333 C 55.204,-5.172 55.5627,-5.036 55.8093,-4.76533 C 56.0547,-4.49467 56.1773,-4.09733 56.176,-3.57333 L 56.1733,-3.17467 L 54.7667,-3.03867 C 54.0747,-2.97733 53.5493,-2.82 53.196,-2.56933 C 52.8413,-2.31867 52.6627,-1.948 52.6613,-1.45733 C 52.668,-0.954667 52.8147,-0.569333 53.0987,-0.298667 C 53.384,-0.0266667 53.764,0.109333 54.24,0.112 C 54.54,0.106667 54.8187,0.056 55.0747,-0.04 C 55.3307,-0.138667 55.556,-0.252 55.7493,-0.382667 C 55.9427,-0.512 56.0987,-0.630667 56.212,-0.736 C 56.2547,-0.486667 56.324,-0.290667 56.4213,-0.142667 C 56.5173,0.00533333 56.6387,0.0813333 56.784,0.084 C 56.9013,0.076 57,0.0426667 57.076,-0.0146667 C 57.152,-0.072 57.192,-0.102667 57.1933,-0.112 C 57.1827,-0.109333 57.1373,-0.225333 57.0587,-0.457333 C 56.98,-0.690667 56.9347,-1.05467 56.924,-1.54933 Z M 54.4813,-0.496 C 54.152,-0.5 53.8947,-0.586667 53.7093,-0.758667 C 53.5253,-0.929333 53.4307,-1.16933 53.428,-1.47733 C 53.4347,-1.828 53.5667,-2.08667 53.8227,-2.25333 C 54.0787,-2.42 54.4173,-2.52 54.8387,-2.556 L 56.1693,-2.68267 L 56.1627,-1.616 L 56.1627,-1.35733 C 56.1627,-1.31867 56.1627,-1.28133 56.164,-1.244 C 56.0867,-1.16933 55.9653,-1.07333 55.804,-0.957333 C 55.64,-0.841333 55.4453,-0.737333 55.22,-0.644 C 54.9933,-0.550667 54.748,-0.502667 54.4813,-0.496 Z "/>
		<path id="dp_path030" fill="currentColor" fill-rule="evenodd" stroke="none" stroke-width="0" d="M 63.1853,-1.61733 L 63.1853,-7.56667 L 63.1867,-7.56667 L 63.1867,-8.49467 C 63.1827,-8.496 63.164,-8.50667 63.128,-8.52667 C 63.0907,-8.54667 63.0507,-8.55733 63.0067,-8.56133 C 62.9547,-8.55733 62.8653,-8.53733 62.7387,-8.5 C 62.6133,-8.464 62.4893,-8.43333 62.3667,-8.408 C 62.368,-8.39733 62.3773,-8.288 62.392,-8.08133 C 62.4067,-7.876 62.416,-7.632 62.4187,-7.352 L 62.4187,-5.55467 C 62.4187,-5.46533 62.4213,-5.384 62.428,-5.31067 C 62.2853,-5.412 62.092,-5.50933 61.8507,-5.6 C 61.6093,-5.68933 61.324,-5.73867 60.9947,-5.744 C 60.476,-5.73867 60.0147,-5.59733 59.6093,-5.31867 C 59.2053,-5.04133 58.8867,-4.66267 58.6533,-4.18533 C 58.42,-3.70667 58.3013,-3.164 58.2973,-2.55867 C 58.3093,-1.73333 58.5227,-1.08533 58.94,-0.612 C 59.356,-0.138667 59.9,0.102667 60.5693,0.112 C 61.0147,0.101333 61.3973,0.012 61.716,-0.154667 C 62.0347,-0.321333 62.288,-0.501333 62.476,-0.693333 C 62.5213,-0.458667 62.592,-0.270667 62.6867,-0.130667 C 62.7827,0.00933333 62.9013,0.0813333 63.044,0.084 C 63.164,0.076 63.2613,0.0426667 63.3373,-0.0146667 C 63.4147,-0.072 63.4533,-0.104 63.456,-0.112 C 63.4453,-0.109333 63.3987,-0.224 63.32,-0.456 C 63.2413,-0.688 63.196,-1.05333 63.1853,-1.552 Z M 60.7733,-0.477333 C 60.252,-0.485333 59.84,-0.68 59.5373,-1.06133 C 59.236,-1.444 59.0813,-1.968 59.0747,-2.63333 C 59.0853,-3.37067 59.2733,-3.97467 59.64,-4.444 C 60.0053,-4.91467 60.4867,-5.15733 61.08,-5.17333 C 61.388,-5.16667 61.6547,-5.10933 61.8813,-5.004 C 62.108,-4.9 62.2853,-4.78933 62.4187,-4.67467 L 62.4187,-1.35733 C 62.4187,-1.304 62.4187,-1.25067 62.4213,-1.19733 C 62.248,-1.02267 62.0213,-0.861333 61.7427,-0.714667 C 61.4653,-0.566667 61.1427,-0.486667 60.772,-0.477333 Z "/>
		<path id="dp_path031" fill="currentColor" fill-rule="evenodd" stroke="none" stroke-width="0" d="M 65.5267,-7.22 C 65.6653,-7.22267 65.7947,-7.26933 65.912,-7.36133 C 66.0293,-7.452 66.092,-7.572 66.1,-7.72133 C 66.0987,-7.836 66.0587,-7.93467 65.98,-8.01733 C 65.9027,-8.1 65.7947,-8.14267 65.66,-8.14667 C 65.5213,-8.14533 65.392,-8.09733 65.2747,-8.008 C 65.1573,-7.91733 65.0947,-7.796 65.088,-7.644 C 65.088,-7.52933 65.1293,-7.432 65.2067,-7.34933 C 65.284,-7.26667 65.392,-7.224 65.5267,-7.22 Z M 65.148,-5.52533 C 65.1507,-5.51467 65.1587,-5.408 65.1733,-5.20133 C 65.1893,-4.99467 65.1973,-4.752 65.2013,-4.47333 L 65.2013,0.649333 C 65.192,0.966667 65.136,1.24533 65.032,1.48667 C 64.928,1.728 64.824,1.91733 64.7187,2.052 C 64.6147,2.188 64.5573,2.25733 64.5507,2.26 C 64.548,2.272 64.5707,2.32 64.6187,2.40667 C 64.6667,2.492 64.752,2.54 64.872,2.552 C 65.0027,2.55067 65.1533,2.46533 65.3213,2.29733 C 65.4907,2.128 65.6387,1.89333 65.7667,1.59067 C 65.8933,1.288 65.96,0.934667 65.9667,0.528 L 65.9667,-4.68133 L 65.968,-4.68133 L 65.968,-5.60933 C 65.9653,-5.612 65.9467,-5.62267 65.9093,-5.644 C 65.8733,-5.664 65.8333,-5.676 65.7893,-5.67867 C 65.736,-5.67467 65.6467,-5.65467 65.5213,-5.61867 C 65.396,-5.58133 65.272,-5.55067 65.148,-5.52533 Z "/>
		<path id="dp_path032" fill="currentColor" fill-rule="evenodd" stroke="none" stroke-width="0" d="M 71.8987,-1.24 C 71.9,-1.23067 71.84,-1.16533 71.7227,-1.04533 C 71.6053,-0.924 71.4227,-0.804 71.176,-0.682667 C 70.9293,-0.562667 70.612,-0.496 70.2253,-0.486667 C 69.6213,-0.489333 69.14,-0.684 68.7827,-1.06933 C 68.4267,-1.45467 68.2427,-2.024 68.2347,-2.77467 C 68.2347,-2.81867 68.236,-2.86133 68.2373,-2.904 L 71.5227,-3.08533 C 71.7347,-3.09467 71.8853,-3.152 71.9733,-3.256 C 72.0627,-3.36133 72.1053,-3.52933 72.1027,-3.76 C 72.1027,-4.10133 72.028,-4.42267 71.876,-4.72267 C 71.7267,-5.02133 71.504,-5.26533 71.208,-5.45467 C 70.912,-5.64267 70.5467,-5.73867 70.112,-5.744 C 69.584,-5.73867 69.1213,-5.60133 68.7253,-5.33333 C 68.328,-5.064 68.02,-4.696 67.7973,-4.23067 C 67.576,-3.764 67.4627,-3.232 67.4587,-2.63467 C 67.4707,-1.76667 67.7067,-1.09333 68.1667,-0.614667 C 68.6253,-0.137333 69.2373,0.105333 70,0.112 C 70.4187,0.106667 70.7813,0.04 71.0893,-0.084 C 71.3987,-0.208 71.6373,-0.354667 71.808,-0.522667 C 71.9773,-0.692 72.064,-0.845333 72.0653,-0.982667 C 72.0587,-1.07333 72.0307,-1.13867 71.9827,-1.17867 C 71.9333,-1.22 71.9053,-1.24133 71.8987,-1.24 Z M 70,-5.17333 C 70.3027,-5.16667 70.552,-5.09067 70.7507,-4.94533 C 70.948,-4.79867 71.0947,-4.624 71.192,-4.41733 C 71.288,-4.212 71.336,-4.016 71.336,-3.82933 C 71.336,-3.75067 71.3227,-3.69067 71.2973,-3.65067 C 71.2693,-3.60933 71.224,-3.588 71.1587,-3.58267 L 68.2867,-3.4 C 68.38,-3.92533 68.5733,-4.35067 68.868,-4.67467 C 69.1627,-4.99733 69.54,-5.164 70,-5.17333 Z "/>
		<path id="dp_path033" fill="currentColor" fill-rule="evenodd" stroke="none" stroke-width="0" d="M 77.6947,-5.744 C 77.136,-5.74 76.6907,-5.60533 76.3587,-5.34 C 76.0267,-5.07467 75.8573,-4.70667 75.8493,-4.23333 C 75.8467,-3.93067 75.9307,-3.672 76.1027,-3.456 C 76.2747,-3.24 76.548,-3.04 76.9267,-2.85333 L 77.7187,-2.45333 C 78.0013,-2.31733 78.216,-2.172 78.3653,-2.01867 C 78.5133,-1.86667 78.588,-1.67867 78.5893,-1.45467 C 78.5827,-1.15467 78.4653,-0.914667 78.2413,-0.738667 C 78.016,-0.562667 77.728,-0.472 77.376,-0.468 C 77.04,-0.48 76.7627,-0.550667 76.5453,-0.684 C 76.328,-0.816 76.1667,-0.948 76.0613,-1.08 C 75.956,-1.21333 75.904,-1.28267 75.904,-1.29333 C 75.892,-1.292 75.8413,-1.24933 75.7533,-1.16533 C 75.6653,-1.084 75.616,-0.970667 75.6027,-0.829333 C 75.6147,-0.6 75.788,-0.388 76.1227,-0.194667 C 76.456,-0.00266667 76.8787,0.1 77.3867,0.112 C 77.9573,0.106667 78.4267,-0.04 78.792,-0.326667 C 79.156,-0.613333 79.3453,-1.01067 79.3573,-1.51867 C 79.3533,-1.876 79.252,-2.17733 79.0547,-2.42533 C 78.8587,-2.672 78.592,-2.87733 78.2573,-3.04133 L 77.4653,-3.43733 C 77.1707,-3.58 76.9547,-3.71067 76.8187,-3.832 C 76.6813,-3.95333 76.6147,-4.11067 76.6147,-4.30667 C 76.6227,-4.58267 76.7267,-4.79467 76.924,-4.94133 C 77.1227,-5.088 77.3733,-5.16267 77.6787,-5.164 C 77.9347,-5.15733 78.1493,-5.11467 78.3213,-5.03333 C 78.4933,-4.95333 78.624,-4.87333 78.712,-4.792 C 78.7987,-4.712 78.8427,-4.66933 78.8427,-4.66267 C 78.8547,-4.66533 78.9013,-4.70267 78.9827,-4.77733 C 79.064,-4.852 79.112,-4.95067 79.1227,-5.07467 C 79.1147,-5.256 78.9787,-5.412 78.7173,-5.54133 C 78.4547,-5.67067 78.1133,-5.73867 77.6947,-5.744 Z "/>
		<path id="dp_path034" fill="currentColor" fill-rule="evenodd" stroke="none" stroke-width="0" d="M 84.756,-1.24 C 84.7573,-1.23067 84.6973,-1.16533 84.58,-1.04533 C 84.4627,-0.924 84.28,-0.804 84.0333,-0.682667 C 83.7867,-0.562667 83.4693,-0.496 83.0827,-0.486667 C 82.4787,-0.489333 81.9973,-0.684 81.64,-1.06933 C 81.284,-1.45467 81.1,-2.024 81.092,-2.77467 C 81.092,-2.81867 81.0933,-2.86133 81.0947,-2.904 L 84.38,-3.08533 C 84.592,-3.09467 84.7427,-3.152 84.8307,-3.256 C 84.92,-3.36133 84.9627,-3.52933 84.96,-3.76 C 84.96,-4.10133 84.8853,-4.42267 84.7333,-4.72267 C 84.584,-5.02133 84.3613,-5.26533 84.0653,-5.45467 C 83.7693,-5.64267 83.404,-5.73867 82.9693,-5.744 C 82.4413,-5.73867 81.9787,-5.60133 81.5827,-5.33333 C 81.1853,-5.064 80.8773,-4.696 80.6547,-4.23067 C 80.4333,-3.764 80.32,-3.232 80.316,-2.63467 C 80.328,-1.76667 80.564,-1.09333 81.024,-0.614667 C 81.4827,-0.137333 82.0947,0.105333 82.8573,0.112 C 83.276,0.106667 83.6387,0.04 83.9467,-0.084 C 84.256,-0.208 84.4947,-0.354667 84.6653,-0.522667 C 84.8347,-0.692 84.9213,-0.845333 84.9227,-0.982667 C 84.916,-1.07333 84.888,-1.13867 84.84,-1.17867 C 84.7907,-1.22 84.7627,-1.24133 84.756,-1.24 Z M 82.8573,-5.17333 C 83.16,-5.16667 83.4093,-5.09067 83.608,-4.94533 C 83.8053,-4.79867 83.952,-4.624 84.0493,-4.41733 C 84.1453,-4.212 84.1933,-4.016 84.1933,-3.82933 C 84.1933,-3.75067 84.18,-3.69067 84.1547,-3.65067 C 84.1267,-3.60933 84.0813,-3.588 84.016,-3.58267 L 81.144,-3.4 C 81.2373,-3.92533 81.4307,-4.35067 81.7253,-4.67467 C 82.02,-4.99733 82.3973,-5.164 82.8573,-5.17333 Z "/>
		<path id="dp_path035" fill="currentColor" fill-rule="evenodd" stroke="none" stroke-width="0" d="M 90.612,-1.61733 L 90.612,-7.56667 L 90.6133,-7.56667 L 90.6133,-8.49467 C 90.6093,-8.496 90.5907,-8.50667 90.5547,-8.52667 C 90.5173,-8.54667 90.4773,-8.55733 90.4333,-8.56133 C 90.3813,-8.55733 90.292,-8.53733 90.1653,-8.5 C 90.04,-8.464 89.916,-8.43333 89.7933,-8.408 C 89.7947,-8.39733 89.804,-8.288 89.8187,-8.08133 C 89.8333,-7.876 89.8427,-7.632 89.8453,-7.352 L 89.8453,-5.55467 C 89.8453,-5.46533 89.848,-5.384 89.8547,-5.31067 C 89.712,-5.412 89.5187,-5.50933 89.2773,-5.6 C 89.036,-5.68933 88.7507,-5.73867 88.4213,-5.744 C 87.9027,-5.73867 87.4413,-5.59733 87.036,-5.31867 C 86.632,-5.04133 86.3133,-4.66267 86.08,-4.18533 C 85.8467,-3.70667 85.728,-3.164 85.724,-2.55867 C 85.736,-1.73333 85.9493,-1.08533 86.3667,-0.612 C 86.7827,-0.138667 87.3267,0.102667 87.996,0.112 C 88.4413,0.101333 88.824,0.012 89.1427,-0.154667 C 89.4613,-0.321333 89.7147,-0.501333 89.9027,-0.693333 C 89.948,-0.458667 90.0187,-0.270667 90.1133,-0.130667 C 90.2093,0.00933333 90.328,0.0813333 90.4707,0.084 C 90.5907,0.076 90.688,0.0426667 90.764,-0.0146667 C 90.8413,-0.072 90.88,-0.104 90.8827,-0.112 C 90.872,-0.109333 90.8253,-0.224 90.7467,-0.456 C 90.668,-0.688 90.6227,-1.05333 90.612,-1.552 Z M 88.2,-0.477333 C 87.6787,-0.485333 87.2667,-0.68 86.964,-1.06133 C 86.6627,-1.444 86.508,-1.968 86.5013,-2.63333 C 86.512,-3.37067 86.7,-3.97467 87.0667,-4.444 C 87.432,-4.91467 87.9133,-5.15733 88.5067,-5.17333 C 88.8147,-5.16667 89.0813,-5.10933 89.308,-5.004 C 89.5347,-4.9 89.712,-4.78933 89.8453,-4.67467 L 89.8453,-1.35733 C 89.8453,-1.304 89.8453,-1.25067 89.848,-1.19733 C 89.6747,-1.02267 89.448,-0.861333 89.1693,-0.714667 C 88.892,-0.566667 88.5693,-0.486667 88.1987,-0.477333 Z "/>
		<path id="dp_path036" fill="currentColor" fill-rule="evenodd" stroke="none" stroke-width="0" d="M 96.4867,-1.616 L 96.4987,-3.532 C 96.4987,-4.25867 96.3227,-4.81067 95.968,-5.18267 C 95.6133,-5.556 95.1187,-5.744 94.4853,-5.744 C 94.104,-5.73867 93.7733,-5.67867 93.492,-5.56267 C 93.212,-5.448 92.9947,-5.312 92.8413,-5.156 C 92.6867,-4.99867 92.6093,-4.856 92.6067,-4.72667 C 92.6133,-4.63733 92.6427,-4.57333 92.692,-4.532 C 92.7427,-4.49067 92.772,-4.472 92.7773,-4.472 C 92.7773,-4.48133 92.832,-4.54133 92.94,-4.65333 C 93.048,-4.76667 93.216,-4.87867 93.44,-4.992 C 93.6627,-5.104 93.948,-5.164 94.2947,-5.17333 C 94.7667,-5.172 95.1253,-5.036 95.372,-4.76533 C 95.6173,-4.49467 95.74,-4.09733 95.7387,-3.57333 L 95.736,-3.17467 L 94.3293,-3.03867 C 93.6373,-2.97733 93.112,-2.82 92.7587,-2.56933 C 92.404,-2.31867 92.2253,-1.948 92.224,-1.45733 C 92.2307,-0.954667 92.3773,-0.569333 92.6613,-0.297333 C 92.9467,-0.0266667 93.3267,0.109333 93.8027,0.112 C 94.1027,0.106667 94.3813,0.056 94.6373,-0.04 C 94.8933,-0.138667 95.1187,-0.252 95.312,-0.382667 C 95.5053,-0.512 95.6613,-0.630667 95.7747,-0.736 C 95.8173,-0.486667 95.8867,-0.290667 95.984,-0.142667 C 96.08,0.00533333 96.2013,0.0813333 96.3467,0.084 C 96.464,0.076 96.5627,0.0426667 96.6387,-0.0146667 C 96.7147,-0.072 96.7547,-0.102667 96.756,-0.112 C 96.7453,-0.109333 96.7,-0.225333 96.6213,-0.457333 C 96.5427,-0.690667 96.4973,-1.05467 96.4867,-1.54933 Z M 94.044,-0.496 C 93.7147,-0.5 93.4573,-0.586667 93.272,-0.758667 C 93.088,-0.929333 92.9933,-1.16933 92.9907,-1.47733 C 92.9973,-1.828 93.1293,-2.08667 93.3853,-2.25333 C 93.6413,-2.42 93.98,-2.52 94.4013,-2.556 L 95.732,-2.68267 L 95.7253,-1.616 L 95.7253,-1.35733 C 95.7253,-1.31867 95.7253,-1.28133 95.7267,-1.244 C 95.6493,-1.16933 95.528,-1.07333 95.3667,-0.957333 C 95.2027,-0.841333 95.008,-0.737333 94.7827,-0.644 C 94.556,-0.550667 94.3107,-0.502667 94.044,-0.496 Z "/>
		<path id="dp_path037" fill="currentColor" fill-rule="evenodd" stroke="none" stroke-width="0" d="M 103.001,-3.78133 C 102.997,-4.41467 102.841,-4.89867 102.533,-5.23467 C 102.225,-5.572 101.788,-5.74133 101.22,-5.744 C 100.891,-5.74 100.591,-5.68933 100.317,-5.59333 C 100.045,-5.49733 99.808,-5.384 99.608,-5.25467 C 99.4053,-5.12533 99.2467,-5.008 99.132,-4.90267 C 99.088,-5.14667 99.0187,-5.344 98.9213,-5.48933 C 98.824,-5.63733 98.7027,-5.712 98.5547,-5.716 C 98.436,-5.70933 98.3387,-5.676 98.2627,-5.61867 C 98.1853,-5.56133 98.1453,-5.528 98.1427,-5.52133 C 98.1547,-5.52533 98.2,-5.41067 98.2787,-5.17733 C 98.3587,-4.944 98.4027,-4.58 98.4147,-4.08267 L 98.4147,-1.12533 L 98.4147,-0.0453333 C 98.416,-0.0426667 98.4373,-0.0306667 98.476,-0.008 C 98.5133,0.012 98.556,0.024 98.6,0.0266667 C 98.6587,0.0266667 98.7427,0.0226667 98.852,0.0146667 C 98.9627,0.00666667 99.072,0.00266667 99.18,0.00133333 L 99.18,-1.12533 L 99.18,-4.02267 L 99.18,-4.28133 C 99.18,-4.31867 99.18,-4.35733 99.18,-4.396 C 99.2573,-4.47067 99.38,-4.56667 99.5467,-4.68267 C 99.7133,-4.79867 99.9147,-4.90267 100.151,-4.99733 C 100.385,-5.09067 100.647,-5.14 100.932,-5.14533 C 101.356,-5.14267 101.68,-5.01867 101.901,-4.77333 C 102.121,-4.528 102.233,-4.176 102.235,-3.72 L 102.235,-0.0453333 C 102.237,-0.0426667 102.257,-0.0306667 102.296,-0.008 C 102.335,0.012 102.377,0.024 102.421,0.0266667 C 102.48,0.0266667 102.563,0.0226667 102.673,0.0146667 C 102.784,0.00666667 102.892,0.00266667 103.001,0.00133333 Z "/>
		<path id="dp_path038" fill="currentColor" fill-rule="evenodd" stroke="none" stroke-width="0" d="M 109.216,-1.12667 L 109.22,-5.632 L 107.451,-5.632 C 107.343,-5.63333 107.261,-5.64267 107.211,-5.65467 C 107.159,-5.66933 107.133,-5.67733 107.133,-5.68 C 107.121,-5.60267 107.105,-5.528 107.089,-5.45733 C 107.072,-5.38533 107.063,-5.31467 107.061,-5.24267 C 107.064,-5.19867 107.076,-5.15733 107.096,-5.11867 C 107.115,-5.08 107.127,-5.05867 107.129,-5.056 L 108.453,-5.06533 L 108.451,-1.12667 L 108.451,-0.0453333 C 108.452,-0.0426667 108.473,-0.0306667 108.511,-0.008 C 108.549,0.012 108.592,0.024 108.636,0.0266667 C 108.695,0.0266667 108.777,0.0226667 108.888,0.0146667 C 108.999,0.00666667 109.108,0.00266667 109.216,0.00133333 Z "/>
		<path id="dp_path039" fill="currentColor" fill-rule="evenodd" stroke="none" stroke-width="0" d="M 113.084,-5.744 C 112.351,-5.73333 111.765,-5.508 111.329,-5.068 C 110.892,-4.62933 110.668,-4.04533 110.657,-3.31467 C 110.665,-2.67333 110.853,-2.168 111.221,-1.8 C 111.589,-1.43333 112.088,-1.24667 112.719,-1.24 C 113.227,-1.25467 113.664,-1.356 114.031,-1.544 C 114.396,-1.73067 114.671,-1.90933 114.855,-2.08133 C 114.84,-1.54 114.763,-1.00667 114.621,-0.481333 C 114.48,0.0453333 114.256,0.484 113.949,0.834667 C 113.643,1.18533 113.235,1.36667 112.724,1.38133 C 112.444,1.37333 112.211,1.32533 112.025,1.236 C 111.84,1.14667 111.701,1.056 111.609,0.966667 C 111.519,0.877333 111.473,0.829333 111.473,0.822667 C 111.46,0.822667 111.409,0.858667 111.321,0.930667 C 111.232,1.00133 111.181,1.104 111.168,1.23867 C 111.179,1.43867 111.327,1.60667 111.615,1.74533 C 111.901,1.88267 112.267,1.956 112.708,1.96133 C 113.427,1.94933 114,1.74 114.427,1.33333 C 114.855,0.926667 115.161,0.401333 115.347,-0.242667 C 115.533,-0.885333 115.625,-1.56933 115.62,-2.292 C 115.616,-3.404 115.395,-4.256 114.959,-4.848 C 114.521,-5.44 113.897,-5.74 113.084,-5.744 Z M 111.424,-3.32667 C 111.439,-3.87467 111.592,-4.316 111.885,-4.65333 C 112.177,-4.99067 112.564,-5.16267 113.047,-5.17333 C 113.559,-5.172 113.972,-4.97067 114.288,-4.568 C 114.604,-4.16533 114.789,-3.56267 114.845,-2.76133 C 114.725,-2.64133 114.567,-2.50933 114.365,-2.36267 C 114.165,-2.216 113.933,-2.08933 113.672,-1.98133 C 113.408,-1.87333 113.124,-1.816 112.819,-1.81067 C 112.361,-1.816 112.013,-1.952 111.775,-2.21867 C 111.537,-2.48667 111.42,-2.856 111.424,-3.32667 Z "/>
		<path id="dp_path040" fill="currentColor" fill-rule="evenodd" stroke="none" stroke-width="0" d="M 120.083,-3.82133 C 120.275,-3.95733 120.465,-4.12 120.657,-4.30933 C 120.848,-4.49867 121.008,-4.71733 121.136,-4.96533 C 121.265,-5.21333 121.332,-5.49467 121.336,-5.80667 C 121.328,-6.33733 121.128,-6.76533 120.74,-7.092 C 120.352,-7.41733 119.828,-7.584 119.169,-7.59333 C 118.512,-7.584 117.988,-7.41867 117.599,-7.09467 C 117.211,-6.772 117.011,-6.34667 117.001,-5.82 C 117.007,-5.42933 117.121,-5.08 117.348,-4.772 C 117.573,-4.464 117.877,-4.192 118.259,-3.956 C 118.019,-3.81467 117.785,-3.64933 117.556,-3.45867 C 117.329,-3.268 117.141,-3.04133 116.991,-2.78 C 116.841,-2.51733 116.764,-2.20933 116.757,-1.85467 C 116.769,-1.26 116.992,-0.785333 117.427,-0.432 C 117.861,-0.0773333 118.441,0.102667 119.165,0.112 C 119.889,0.102667 120.469,-0.0773333 120.904,-0.433333 C 121.337,-0.788 121.56,-1.264 121.572,-1.864 C 121.557,-2.36933 121.405,-2.77333 121.117,-3.076 C 120.828,-3.37733 120.491,-3.62267 120.104,-3.81067 Z M 117.76,-5.86667 C 117.767,-6.19733 117.897,-6.47067 118.149,-6.68667 C 118.403,-6.90267 118.74,-7.01467 119.159,-7.02267 C 119.584,-7.016 119.924,-6.89733 120.179,-6.66667 C 120.433,-6.43733 120.564,-6.136 120.571,-5.76267 C 120.564,-5.51467 120.507,-5.29067 120.396,-5.08667 C 120.285,-4.884 120.151,-4.70267 119.991,-4.54133 C 119.831,-4.38 119.675,-4.23733 119.523,-4.11333 L 118.925,-4.42667 C 118.565,-4.61333 118.281,-4.82933 118.076,-5.072 C 117.869,-5.316 117.765,-5.58 117.76,-5.86667 Z M 119.177,-0.468 C 118.685,-0.474667 118.289,-0.601333 117.989,-0.853333 C 117.688,-1.104 117.535,-1.44533 117.525,-1.88 C 117.531,-2.16667 117.597,-2.41867 117.724,-2.63467 C 117.852,-2.852 118.011,-3.044 118.2,-3.20933 C 118.389,-3.376 118.58,-3.52667 118.772,-3.66267 L 119.697,-3.14533 C 120.024,-2.97467 120.288,-2.78533 120.491,-2.58 C 120.693,-2.37467 120.799,-2.112 120.804,-1.79467 C 120.796,-1.396 120.643,-1.07733 120.347,-0.837333 C 120.049,-0.598667 119.66,-0.474667 119.177,-0.468 Z "/>
		<path id="dp_path041" fill="currentColor" fill-rule="evenodd" stroke="none" stroke-width="0" d="M 125.04,-5.744 C 124.307,-5.73333 123.721,-5.508 123.285,-5.068 C 122.848,-4.62933 122.624,-4.04533 122.613,-3.31467 C 122.621,-2.67333 122.809,-2.168 123.177,-1.8 C 123.545,-1.43333 124.044,-1.24667 124.675,-1.24 C 125.183,-1.25467 125.62,-1.356 125.987,-1.544 C 126.352,-1.73067 126.627,-1.90933 126.811,-2.08133 C 126.796,-1.54 126.719,-1.00667 126.577,-0.481333 C 126.436,0.0453333 126.212,0.484 125.905,0.834667 C 125.599,1.18533 125.191,1.36667 124.68,1.38133 C 124.4,1.37333 124.167,1.32533 123.981,1.236 C 123.796,1.14667 123.657,1.056 123.565,0.966667 C 123.475,0.877333 123.429,0.829333 123.429,0.822667 C 123.416,0.822667 123.365,0.858667 123.277,0.930667 C 123.188,1.00133 123.137,1.104 123.124,1.23867 C 123.135,1.43867 123.283,1.60667 123.571,1.74533 C 123.857,1.88267 124.223,1.956 124.664,1.96133 C 125.383,1.94933 125.956,1.74 126.383,1.33333 C 126.811,0.926667 127.117,0.401333 127.303,-0.242667 C 127.489,-0.885333 127.581,-1.56933 127.576,-2.292 C 127.572,-3.404 127.351,-4.256 126.915,-4.848 C 126.477,-5.44 125.853,-5.74 125.04,-5.744 Z M 123.38,-3.32667 C 123.395,-3.87467 123.548,-4.316 123.841,-4.65333 C 124.133,-4.99067 124.52,-5.16267 125.003,-5.17333 C 125.515,-5.172 125.928,-4.97067 126.244,-4.568 C 126.56,-4.16533 126.745,-3.56267 126.801,-2.76133 C 126.681,-2.64133 126.523,-2.50933 126.321,-2.36267 C 126.121,-2.216 125.889,-2.08933 125.628,-1.98133 C 125.364,-1.87333 125.08,-1.816 124.775,-1.81067 C 124.317,-1.816 123.969,-1.952 123.731,-2.21867 C 123.493,-2.48667 123.376,-2.856 123.38,-3.32667 Z "/>
	</g>
	<g id="dp_dp042" transform="matrix(1,0,0,1,1.33988,125.061)">
		<path id="dp_path043" fill="currentColor" fill-rule="evenodd" stroke="none" stroke-width="0" d="M 19.068,-28.388 C 19.048,-28.4147 18.872,-28.528 18.5387,-28.728 C 18.2027,-28.9267 17.824,-29.04 17.4013,-29.068 C 17.164,-29.068 16.628,-29.0507 15.7933,-29.016 C 14.9613,-28.9853 14.02,-28.9507 12.9693,-28.92 C 11.9173,-28.8893 10.948,-28.872 10.0587,-28.868 C 10.0787,-28.828 10.0893,-28.48 10.092,-27.828 C 10.096,-27.1747 9.976,-26.46 9.72533,-25.6827 L 0.488,-0.477333 C 0.505333,-0.450667 0.68,-0.337333 1.01733,-0.137333 C 1.35067,0.0613333 1.728,0.174667 2.15467,0.202667 C 2.66,0.196 3.49867,0.161333 4.66267,0.102667 C 5.832,0.0453333 7.01733,0.0106667 8.22667,0.004 L 10.6213,-6.91067 L 18.4227,-6.91067 L 20.6147,-0.477333 C 20.6347,-0.450667 20.8107,-0.337333 21.1467,-0.137333 C 21.48,0.0613333 21.8587,0.174667 22.2813,0.202667 C 22.652,0.202667 23.2333,0.185333 24.0267,0.150667 C 24.824,0.12 25.7173,0.0853333 26.7067,0.0546667 C 27.6973,0.024 28.6653,0.00666667 29.6147,0.004 Z M 14.0827,-22.944 C 14.1573,-22.6147 14.3227,-21.9507 14.58,-20.9547 C 14.8387,-19.9587 15.1853,-18.704 15.6253,-17.192 L 17.068,-12.264 L 11.5467,-12.264 L 12.976,-17.5667 C 13.1373,-18.1747 13.2947,-18.8413 13.4467,-19.5733 C 13.5973,-20.3013 13.728,-20.9787 13.8413,-21.5973 C 13.9547,-22.2187 14.0333,-22.6667 14.0827,-22.944 Z "/>
		<path id="dp_path044" fill="currentColor" fill-rule="evenodd" stroke="none" stroke-width="0" d="M 39.2667,-29.068 C 38.9133,-29.068 38.3493,-29.0507 37.58,-29.016 C 36.8133,-28.9853 35.9813,-28.9507 35.092,-28.92 C 34.2053,-28.8893 33.4013,-28.872 32.6893,-28.868 L 32.6893,-0.498667 C 32.7067,-0.468 32.8827,-0.350667 33.2187,-0.148 C 33.552,0.0586667 33.9307,0.174667 34.3533,0.202667 C 34.7067,0.202667 35.2707,0.182667 36.04,0.150667 C 36.8107,0.117333 37.6387,0.0853333 38.528,0.052 C 39.4147,0.0173333 40.2187,0 40.9307,-0.004 L 40.9307,-28.388 C 40.9133,-28.4147 40.7373,-28.528 40.4013,-28.728 C 40.068,-28.9267 39.6893,-29.04 39.2667,-29.068 Z "/>
		<path id="dp_path045" fill="currentColor" fill-rule="evenodd" stroke="none" stroke-width="0" d="M 73.88,-3.508 C 73.86,-3.49467 73.584,-3.608 73.0547,-3.84133 C 72.5293,-4.07867 71.8733,-4.508 71.0893,-5.13733 C 70.3067,-5.76267 69.5187,-6.656 68.7293,-7.81733 L 65.3573,-12.9653 C 65.1133,-13.3333 64.8533,-13.6667 64.5773,-13.9653 C 64.3,-14.264 64.032,-14.5253 63.7773,-14.7453 C 64.08,-15.092 64.4027,-15.4773 64.7427,-15.9 C 65.08,-16.3267 65.3893,-16.7493 65.664,-17.172 L 72.876,-28.388 C 72.86,-28.4147 72.6813,-28.528 72.348,-28.728 C 72.0107,-28.9267 71.632,-29.04 71.2067,-29.068 C 70.8493,-29.068 70.3,-29.0507 69.5533,-29.016 C 68.812,-28.9853 67.9867,-28.9507 67.0827,-28.92 C 66.176,-28.8893 65.3027,-28.872 64.4573,-28.868 L 56.7187,-15.22 C 56.4987,-14.8307 56.392,-14.456 56.4027,-14.092 C 56.4133,-13.732 56.5267,-13.3507 56.736,-12.9547 L 61.5947,-3.656 C 62.5707,-1.92133 63.7707,-0.732 65.1893,-0.0893333 C 66.6093,0.553333 67.9253,0.858667 69.1413,0.821333 C 70.7947,0.769333 71.952,0.394667 72.6187,-0.298667 C 73.2853,-0.993333 73.6707,-1.69067 73.7773,-2.38533 C 73.88,-3.07867 73.9147,-3.45333 73.88,-3.50533 Z M 46.6533,-0.498667 C 46.6707,-0.468 46.8467,-0.350667 47.1827,-0.148 C 47.516,0.0586667 47.8947,0.174667 48.3173,0.202667 C 48.6707,0.202667 49.2347,0.182667 50.004,0.150667 C 50.7747,0.117333 51.6027,0.0853333 52.492,0.052 C 53.3787,0.0173333 54.1827,0 54.8947,-0.004 L 54.8947,-28.388 C 54.8773,-28.4147 54.7013,-28.528 54.3653,-28.728 C 54.032,-28.9267 53.6533,-29.04 53.2307,-29.068 C 52.8773,-29.068 52.3133,-29.0507 51.544,-29.016 C 50.7773,-28.9853 49.9453,-28.9507 49.056,-28.92 C 48.1693,-28.8893 47.3653,-28.872 46.6533,-28.868 Z "/>
		<path id="dp_path046" fill="currentColor" fill-rule="evenodd" stroke="none" stroke-width="0" d="M 83.4693,-29.068 C 83.116,-29.068 82.552,-29.0507 81.7827,-29.016 C 81.016,-28.9853 80.184,-28.9507 79.2947,-28.92 C 78.408,-28.8893 77.604,-28.872 76.892,-28.868 L 76.892,-0.498667 C 76.9093,-0.468 77.0853,-0.350667 77.4213,-0.148 C 77.7547,0.0586667 78.1333,0.174667 78.556,0.202667 C 78.9093,0.202667 79.4733,0.182667 80.2427,0.150667 C 81.0133,0.117333 81.8413,0.0853333 82.7307,0.052 C 83.6173,0.0173333 84.4213,0 85.1333,-0.004 L 85.1333,-28.388 C 85.116,-28.4147 84.94,-28.528 84.604,-28.728 C 84.2707,-28.9267 83.892,-29.04 83.4693,-29.068 Z "/>
		<path id="dp_path047" fill="currentColor" fill-rule="evenodd" stroke="none" stroke-width="0" d="M 100.035,-29.2707 C 98.7813,-29.2667 97.4507,-29.2333 96.0453,-29.164 C 94.636,-29.0987 93.4333,-29.0333 92.4307,-28.968 C 91.424,-28.9 90.9013,-28.8653 90.8533,-28.8587 L 90.856,-0.004 C 90.9053,0.004 91.4093,0.0373333 92.368,0.106667 C 93.324,0.172 94.448,0.237333 95.7333,0.302667 C 97.0173,0.370667 98.176,0.405333 99.204,0.409333 C 103.159,0.388 106.568,-0.296 109.437,-1.64667 C 112.307,-2.99333 114.523,-4.876 116.079,-7.292 C 117.636,-9.708 118.427,-12.5293 118.444,-15.756 C 118.477,-19.9267 117.007,-23.2093 114.035,-25.608 C 111.065,-28.0027 106.396,-29.2227 100.035,-29.2707 Z M 102.228,-23.0987 C 104.581,-23.0987 106.457,-22.4733 107.853,-21.22 C 109.248,-19.968 109.963,-18.0747 109.997,-15.5453 C 110,-13.996 109.723,-12.4813 109.155,-10.996 C 108.588,-9.512 107.705,-8.27867 106.499,-7.296 C 105.296,-6.316 103.74,-5.808 101.832,-5.76933 C 101.241,-5.776 100.651,-5.8 100.056,-5.84133 C 99.464,-5.88267 99.1453,-5.90667 99.0973,-5.91333 L 99.0933,-22.8133 C 99.128,-22.828 99.4573,-22.872 100.083,-22.9547 C 100.708,-23.0373 101.424,-23.0853 102.228,-23.0987 Z "/>
		<path id="dp_path048" fill="currentColor" fill-rule="evenodd" stroke="none" stroke-width="0" d="M 136.153,-29.2747 C 133.119,-29.2573 130.425,-28.604 128.075,-27.3187 C 125.72,-26.0333 123.868,-24.2333 122.517,-21.9133 C 121.167,-19.5973 120.476,-16.8827 120.452,-13.7693 C 120.469,-10.88 121.071,-8.37733 122.253,-6.26133 C 123.435,-4.144 125.095,-2.508 127.225,-1.35067 C 129.356,-0.192 131.851,0.394667 134.709,0.409333 C 137.757,0.388 140.452,-0.268 142.796,-1.564 C 145.143,-2.85867 146.984,-4.66667 148.324,-6.98667 C 149.661,-9.30533 150.345,-12.0093 150.369,-15.1027 C 150.352,-17.9613 149.761,-20.4493 148.589,-22.5667 C 147.417,-24.6827 145.768,-26.3253 143.644,-27.4947 C 141.524,-28.6653 139.025,-29.2573 136.153,-29.2747 Z M 134.504,-23.3013 C 136.689,-23.268 138.472,-22.364 139.857,-20.5973 C 141.239,-18.8307 141.953,-16.4013 141.999,-13.316 C 141.999,-10.948 141.52,-9.068 140.565,-7.67733 C 139.609,-6.28533 138.167,-5.59467 136.236,-5.59733 C 133.944,-5.69467 132.143,-6.66 130.831,-8.488 C 129.521,-10.316 128.851,-12.684 128.824,-15.584 C 128.809,-17.7827 129.253,-19.604 130.153,-21.0507 C 131.053,-22.4973 132.504,-23.2467 134.504,-23.3013 Z "/>
		<path id="dp_path049" fill="currentColor" fill-rule="evenodd" stroke="none" stroke-width="0" d="M 171.728,-29.2707 C 170.475,-29.2667 169.144,-29.2333 167.739,-29.164 C 166.329,-29.0987 165.127,-29.0333 164.124,-28.968 C 163.117,-28.9 162.595,-28.8653 162.547,-28.8587 L 162.549,-0.004 C 162.599,0.004 163.103,0.0373333 164.061,0.106667 C 165.017,0.172 166.141,0.237333 167.427,0.302667 C 168.711,0.370667 169.869,0.405333 170.897,0.409333 C 174.852,0.388 178.261,-0.296 181.131,-1.64667 C 184,-2.99333 186.216,-4.876 187.772,-7.292 C 189.329,-9.708 190.12,-12.5293 190.137,-15.756 C 190.171,-19.9267 188.7,-23.2093 185.728,-25.608 C 182.759,-28.0027 178.089,-29.2227 171.728,-29.2707 Z M 173.921,-23.0987 C 176.275,-23.0987 178.151,-22.4733 179.547,-21.22 C 180.941,-19.968 181.656,-18.0747 181.691,-15.5453 C 181.693,-13.996 181.416,-12.4813 180.848,-10.996 C 180.281,-9.512 179.399,-8.27867 178.192,-7.296 C 176.989,-6.316 175.433,-5.808 173.525,-5.76933 C 172.935,-5.776 172.344,-5.8 171.749,-5.84133 C 171.157,-5.88267 170.839,-5.90667 170.791,-5.91333 L 170.787,-22.8133 C 170.821,-22.828 171.151,-22.872 171.776,-22.9547 C 172.401,-23.0373 173.117,-23.0853 173.921,-23.0987 Z "/>
		<path id="dp_path050" fill="currentColor" fill-rule="evenodd" stroke="none" stroke-width="0" d="M 207.847,-29.2747 C 204.812,-29.2573 202.119,-28.604 199.768,-27.3187 C 197.413,-26.0333 195.561,-24.2333 194.211,-21.9133 C 192.86,-19.5973 192.169,-16.8827 192.145,-13.7693 C 192.163,-10.88 192.764,-8.37733 193.947,-6.26133 C 195.128,-4.144 196.788,-2.508 198.919,-1.35067 C 201.049,-0.192 203.544,0.394667 206.403,0.409333 C 209.451,0.388 212.145,-0.268 214.489,-1.564 C 216.836,-2.85867 218.677,-4.66667 220.017,-6.98667 C 221.355,-9.30533 222.039,-12.0093 222.063,-15.1027 C 222.045,-17.9613 221.455,-20.4493 220.283,-22.5667 C 219.111,-24.6827 217.461,-26.3253 215.337,-27.4947 C 213.217,-28.6653 210.719,-29.2573 207.847,-29.2747 Z M 206.197,-23.3013 C 208.383,-23.268 210.165,-22.364 211.551,-20.5973 C 212.932,-18.8307 213.647,-16.4013 213.692,-13.316 C 213.692,-10.948 213.213,-9.068 212.259,-7.67733 C 211.303,-6.28533 209.86,-5.59467 207.929,-5.59733 C 205.637,-5.69467 203.836,-6.66 202.524,-8.488 C 201.215,-10.316 200.544,-12.684 200.517,-15.584 C 200.503,-17.7827 200.947,-19.604 201.847,-21.0507 C 202.747,-22.4973 204.197,-23.2467 206.197,-23.3013 Z "/>
		<path id="dp_path051" fill="currentColor" fill-rule="evenodd" stroke="none" stroke-width="0" d="M 232.573,-29.068 C 232.22,-29.068 231.656,-29.0507 230.887,-29.016 C 230.12,-28.9853 229.288,-28.9507 228.399,-28.92 C 227.512,-28.8893 226.708,-28.872 225.996,-28.868 L 225.996,0.865333 C 225.969,1.948 225.784,2.91467 225.44,3.76267 C 225.096,4.608 224.753,5.27867 224.405,5.76933 C 224.061,6.25733 223.876,6.508 223.852,6.51867 C 223.845,6.55333 223.924,6.78667 224.089,7.22267 C 224.255,7.66267 224.547,8.1 224.965,8.536 C 225.385,8.972 225.976,9.20933 226.732,9.24 C 227.756,9.23733 228.841,8.852 229.993,8.08267 C 231.141,7.316 232.127,6.18933 232.948,4.704 C 233.769,3.22 234.199,1.40267 234.237,-0.749333 L 234.237,-28.388 C 234.22,-28.4147 234.044,-28.528 233.708,-28.728 C 233.375,-28.9267 232.996,-29.04 232.573,-29.068 Z "/>
		<path id="dp_path052" fill="currentColor" fill-rule="evenodd" stroke="none" stroke-width="0" d="M 253.809,-29.2747 C 250.775,-29.2573 248.081,-28.604 245.731,-27.3187 C 243.376,-26.0333 241.524,-24.2333 240.173,-21.9133 C 238.823,-19.5973 238.132,-16.8827 238.108,-13.7693 C 238.125,-10.88 238.727,-8.37733 239.909,-6.26133 C 241.091,-4.144 242.751,-2.508 244.881,-1.35067 C 247.012,-0.192 249.507,0.394667 252.365,0.409333 C 255.413,0.388 258.108,-0.268 260.452,-1.564 C 262.799,-2.85867 264.64,-4.66667 265.98,-6.98667 C 267.317,-9.30533 268.001,-12.0093 268.025,-15.1027 C 268.008,-17.9613 267.417,-20.4493 266.245,-22.5667 C 265.073,-24.6827 263.424,-26.3253 261.3,-27.4947 C 259.18,-28.6653 256.681,-29.2573 253.809,-29.2747 Z M 252.16,-23.3013 C 254.345,-23.268 256.128,-22.364 257.513,-20.5973 C 258.895,-18.8307 259.609,-16.4013 259.655,-13.316 C 259.655,-10.948 259.176,-9.068 258.221,-7.67733 C 257.265,-6.28533 255.823,-5.59467 253.892,-5.59733 C 251.6,-5.69467 249.799,-6.66 248.487,-8.488 C 247.177,-10.316 246.507,-12.684 246.48,-15.584 C 246.465,-17.7827 246.909,-19.604 247.809,-21.0507 C 248.709,-22.4973 250.16,-23.2467 252.16,-23.3013 Z "/>
	</g>
</svg>
