<svg xmlns="http://www.w3.org/2000/svg" viewBox="0 0 1440 320" preserveAspectRatio="none" class="w-full h-12">
        <path fill="currentColor" fill-opacity="1" d="M0,32L24,69.3C48,107,96,181,144,224C192,267,240,277,288,277.3C336,277,384,267,432,218.7C480,171,528,85,576,58.7C624,32,672,64,720,101.3C768,139,816,181,864,181.3C912,181,960,139,1008,112C1056,85,1104,75,1152,106.7C1200,139,1248,213,1296,213.3C1344,213,1392,139,1416,101.3L1440,64L1440,320L1416,320C1392,320,1344,320,1296,320C1248,320,1200,320,1152,320C1104,320,1056,320,1008,320C960,320,912,320,864,320C816,320,768,320,720,320C672,320,624,320,576,320C528,320,480,320,432,320C384,320,336,320,288,320C240,320,192,320,144,320C96,320,48,320,24,320L0,320Z">
        </path>
    </svg>