<svg xmlns="http://www.w3.org/2000/svg" viewBox="0 0 1440 320" preserveAspectRatio="none" class="w-full h-12">
        <path fill="currentColor" fill-opacity="1" d="M0,192L24,181.3C48,171,96,149,144,165.3C192,181,240,235,288,266.7C336,299,384,309,432,288C480,267,528,213,576,192C624,171,672,181,720,165.3C768,149,816,107,864,101.3C912,96,960,128,1008,170.7C1056,213,1104,267,1152,266.7C1200,267,1248,213,1296,176C1344,139,1392,117,1416,106.7L1440,96L1440,0L1416,0C1392,0,1344,0,1296,0C1248,0,1200,0,1152,0C1104,0,1056,0,1008,0C960,0,912,0,864,0C816,0,768,0,720,0C672,0,624,0,576,0C528,0,480,0,432,0C384,0,336,0,288,0C240,0,192,0,144,0C96,0,48,0,24,0L0,0Z">
        </path>
    </svg>